<svg version="1.1" id="Layer_1" xmlns="http://www.w3.org/2000/svg" xmlns:xlink="http://www.w3.org/1999/xlink" x="0px" y="0px"
	 width="100%" viewBox="0 0 973 647" enable-background="new 0 0 973 647" xml:space="preserve">
<path fill="#FEFFFF" opacity="1.000000" stroke="none" 
	d="
M681.000000,648.000000 
	C454.000061,648.000000 227.500137,648.000000 1.000152,648.000000 
	C1.000101,432.333466 1.000101,216.666931 1.000051,1.000297 
	C325.333099,1.000198 649.666199,1.000198 973.999512,1.000099 
	C973.999634,216.666382 973.999634,432.332764 973.999817,647.999573 
	C876.500000,648.000000 779.000000,648.000000 681.000000,648.000000 
M343.951935,228.061234 
	C343.951935,228.061234 343.930023,228.152985 343.616272,227.558853 
	C342.983948,227.420410 342.351624,227.281982 341.131256,227.006134 
	C340.418884,226.643585 339.706543,226.281036 338.726990,225.461151 
	C338.402222,225.350647 338.077454,225.240143 337.068451,225.307327 
	C336.823700,226.292877 336.083588,227.504196 336.413422,228.227875 
	C338.832458,233.535324 341.465698,238.745148 344.147095,244.662933 
	C349.545807,252.700577 356.035553,259.278870 366.714386,261.458282 
	C367.186646,261.505829 367.658936,261.553375 368.447388,262.085388 
	C368.980438,262.077545 369.513489,262.069733 370.700592,262.434723 
	C372.165741,262.403992 373.630859,262.373291 375.835144,262.391388 
	C378.270905,260.446899 381.119049,258.845795 383.072693,256.499786 
	C392.724518,244.909363 391.931854,231.726196 388.255402,218.268707 
	C387.976349,217.247177 386.694550,216.499588 385.537140,215.435242 
	C385.317780,215.873688 385.098389,216.312119 384.910828,216.889313 
	C384.910828,216.889313 384.768463,216.888962 384.056702,216.954544 
	C383.382141,217.985275 382.707581,219.016006 381.999176,220.001785 
	C381.999176,220.001785 382.047974,220.029541 381.294586,220.144928 
	C380.996490,220.987457 380.698425,221.829987 380.399475,222.877853 
	C380.399475,222.877853 380.256104,223.024887 379.693054,223.240692 
	C379.573639,223.601776 379.454254,223.962875 379.308380,224.125488 
	C379.308380,224.125488 379.404266,224.301285 378.665985,224.336334 
	C376.765076,227.987946 374.890198,231.653427 372.955078,235.286804 
	C371.393036,238.219650 371.432465,242.422089 366.464447,242.896606 
	C366.192535,242.719345 366.013367,242.474304 365.872711,241.411560 
	C365.075653,241.027573 364.278564,240.643570 363.185364,240.212112 
	C363.185364,240.212112 363.013641,239.966263 362.808838,239.499161 
	C362.513947,239.350967 362.219086,239.202759 362.005280,239.022446 
	C362.005280,239.022446 361.942810,239.083389 361.917938,238.347794 
	C359.937836,237.238846 357.957703,236.129898 356.000000,235.000000 
	C356.000000,235.000000 355.981476,235.024231 355.918854,234.271103 
	C354.472076,233.596359 353.025269,232.921616 351.249146,232.233093 
	C351.249146,232.233093 350.987030,232.033173 350.875214,231.296143 
	C349.807587,230.922638 348.739960,230.549118 347.128510,230.092102 
	C346.769104,230.038895 346.409668,229.985687 345.765808,229.548370 
	C345.495422,229.377060 345.245270,229.180084 344.778107,228.502335 
	C344.474030,228.368179 344.169952,228.234009 343.951935,228.061234 
M646.322266,192.987534 
	C645.873596,193.286316 645.424927,193.585083 644.711426,194.363739 
	C644.243408,194.623962 643.775391,194.884201 642.487549,195.062439 
	C639.536804,195.384476 636.602295,195.725693 636.115173,199.944519 
	C632.689758,199.853500 632.116394,202.187469 631.723633,205.422546 
	C631.120605,205.940384 630.517578,206.458221 629.493896,207.197922 
	C629.232483,207.402267 629.067078,207.666687 629.000000,208.000000 
	C629.000000,208.000000 628.992065,207.996902 628.265015,207.982162 
	C626.462097,206.423172 624.659180,204.864182 622.888489,203.333038 
	C625.434570,202.277237 627.175110,201.555481 629.139221,200.336899 
	C629.448792,199.889114 629.758362,199.441330 630.520508,198.736633 
	C630.652100,198.423660 630.783752,198.110687 630.959595,197.373611 
	C630.959595,197.373611 631.153503,196.993866 631.560791,196.746506 
	C631.808472,196.518295 631.942444,196.236053 632.040344,195.421570 
	C632.040344,195.421570 632.224915,194.973633 632.638916,194.619156 
	C632.763733,194.097351 632.888550,193.575546 633.327637,192.429718 
	C633.617737,191.294617 633.907837,190.159515 634.812378,188.907974 
	C634.874634,187.939072 634.936890,186.970154 634.961182,185.242371 
	C635.024292,184.486038 635.087402,183.729691 635.675171,182.352509 
	C635.783997,179.935211 636.282532,177.453217 635.894775,175.118378 
	C635.486328,172.658997 634.231079,170.340225 633.074707,167.446793 
	C633.003113,167.069366 632.931519,166.691940 632.845825,165.797958 
	C632.636841,165.538742 632.427795,165.279526 631.842957,164.468124 
	C631.500549,163.429153 631.158142,162.390182 630.927979,160.524261 
	C630.603882,156.437378 629.301880,153.076813 624.240356,152.263245 
	C623.837036,152.513092 623.433716,152.762939 622.283813,153.120102 
	C621.563782,155.825394 620.843811,158.530670 620.103516,161.853088 
	C619.992859,162.248199 619.882202,162.643311 619.280884,163.492081 
	C618.863281,165.998611 618.445740,168.505127 618.090515,171.681412 
	C618.031189,172.124466 617.971802,172.567520 617.420471,173.431885 
	C617.550415,174.610977 617.680359,175.790054 617.954834,177.771881 
	C617.906006,178.854431 617.857117,179.936996 617.412170,181.340469 
	C617.590149,181.892792 617.768127,182.445114 618.081543,183.649078 
	C618.075195,184.092026 618.068848,184.534988 617.493530,185.432312 
	C617.895630,188.076553 618.297668,190.720795 618.653931,193.063766 
	C615.612122,191.004364 612.721558,189.047394 609.258484,186.749695 
	C608.354187,186.279175 607.449829,185.808655 606.219177,185.168320 
	C604.160583,197.275665 604.350464,208.413940 611.030640,218.654556 
	C616.271729,226.688950 622.920105,229.623978 630.690308,226.948425 
	C632.460083,226.323746 634.229919,225.699051 636.596741,224.994400 
	C636.879028,224.717041 637.161316,224.439682 637.788025,224.124084 
	C637.788025,224.124084 638.008057,223.856369 638.687012,223.791183 
	C650.254761,216.553818 661.549438,196.129379 659.169922,186.386917 
	C656.041809,187.921844 652.959412,189.434326 649.202515,190.960892 
	C648.448242,191.597122 647.693970,192.233353 646.967468,192.947159 
	C646.967468,192.947159 646.885254,192.942551 646.322266,192.987534 
M362.569122,269.524078 
	C362.066376,269.492981 361.563660,269.461884 360.374756,268.983032 
	C356.100098,268.281799 351.825439,267.580566 346.237305,266.663879 
	C350.742401,275.282166 355.004059,282.095337 362.408203,287.353943 
	C365.173462,288.966339 367.938721,290.578766 371.177948,292.734924 
	C374.811279,293.568420 378.444580,294.401947 382.851776,295.573425 
	C384.227631,295.448547 385.603485,295.323639 387.569336,295.421082 
	C388.341003,295.184509 389.112671,294.947906 390.646210,294.807983 
	C393.535461,293.382629 397.264740,292.668091 399.173157,290.412750 
	C409.110901,278.668579 406.479095,256.703186 395.123871,244.861313 
	C389.637634,255.755676 386.402283,266.826782 388.306335,279.242157 
	C384.188873,277.421661 380.071411,275.601196 375.546692,273.456726 
	C375.217804,273.431183 374.888885,273.405609 374.493835,273.428375 
	C374.493835,273.428375 374.417511,273.398499 374.203522,272.856537 
	C373.445648,272.689758 372.687775,272.522949 371.537079,271.905426 
	C369.672607,271.505737 367.808105,271.106079 365.702850,270.672485 
	C365.702850,270.672485 365.614380,270.898926 365.290833,270.305115 
	C364.862885,270.201385 364.434906,270.097626 363.820770,269.716461 
	C363.579956,269.563690 363.391541,269.612549 362.569122,269.524078 
M342.017151,218.842880 
	C344.878387,222.147552 347.044922,226.536026 352.840820,225.569977 
	C352.840820,225.569977 353.030487,225.721771 353.257294,226.422211 
	C354.757141,227.364853 356.270599,228.286591 357.754242,229.254059 
	C362.228485,232.171692 369.703644,229.950867 372.234741,224.559814 
	C372.512512,224.384247 372.790283,224.208679 373.835297,224.024506 
	C377.074066,223.707077 378.536926,222.038376 377.946960,218.202911 
	C378.288208,217.797714 378.629456,217.392517 379.489319,216.689835 
	C379.662750,216.137985 379.836151,215.586136 380.123962,214.476349 
	C380.393250,213.977051 380.662537,213.477753 381.552155,212.935013 
	C381.621582,212.269775 381.690979,211.604553 381.800537,210.274094 
	C381.920288,209.847427 382.040039,209.420776 382.675110,208.723221 
	C382.803467,207.821701 382.931824,206.920181 382.991608,205.264893 
	C383.141571,204.527359 383.291504,203.789810 384.138184,202.760483 
	C383.897217,198.824051 383.656219,194.887634 383.227478,190.146729 
	C382.599640,188.450882 384.122101,185.096085 379.304596,186.015930 
	C378.564880,187.044968 377.825165,188.074005 377.061371,189.090714 
	C377.061371,189.090714 377.100006,189.104660 376.222778,189.031693 
	C372.970978,189.481827 371.857666,188.124863 371.924805,184.823547 
	C372.126556,174.906860 372.688080,164.878799 368.007538,155.629959 
	C367.321289,154.273849 365.896240,153.291611 364.455688,152.191589 
	C364.455688,152.191589 364.099884,152.256058 363.767395,151.713440 
	C363.033295,152.083649 361.935242,152.261963 361.622864,152.854507 
	C359.191803,157.465683 356.654144,162.048370 354.640076,166.845840 
	C350.631561,176.394226 351.150726,185.962311 355.153961,195.459671 
	C355.783752,196.953827 355.709045,198.744934 356.011414,200.736877 
	C353.730896,200.060364 352.212097,199.609818 350.191406,198.951691 
	C349.807343,198.569748 349.423279,198.187805 349.003540,197.053909 
	C347.875488,196.438766 346.747437,195.823639 345.239990,195.131058 
	C345.239990,195.131058 344.947937,194.876785 344.702698,194.433624 
	C344.394531,194.317352 344.086365,194.201080 343.128296,193.851044 
	C338.453735,191.232727 333.779175,188.614410 329.104645,185.996109 
	C328.457275,186.577835 327.809937,187.159561 327.162598,187.741287 
	C331.114441,196.481400 335.066284,205.221512 338.767487,214.552277 
	C339.786743,215.764160 340.806000,216.976044 342.017151,218.842880 
M624.131958,270.118225 
	C624.131958,270.118225 624.176636,270.226898 623.677673,270.147003 
	C623.413513,270.337891 623.149353,270.528809 622.062988,270.741974 
	C620.626770,271.050659 619.114014,271.166412 617.767578,271.701141 
	C611.714417,274.105164 605.708557,276.628204 599.964844,278.294525 
	C601.469055,270.311340 600.894348,262.539795 597.675354,254.334702 
	C596.275940,251.198395 594.876526,248.062103 593.130371,244.148727 
	C586.046265,254.474869 581.833679,264.684052 583.530701,276.431244 
	C584.363159,282.193542 585.552734,288.189636 591.533508,291.425232 
	C591.533508,291.425232 591.554077,291.456390 591.512817,292.133575 
	C592.308289,292.531830 593.103821,292.930084 594.076599,293.702789 
	C594.076599,293.702789 594.441956,293.898132 594.381775,294.185547 
	C594.381775,294.185547 594.757385,294.324860 594.757385,294.324860 
	C594.757385,294.324860 595.053345,294.032318 595.692688,294.278351 
	C596.810486,294.432343 597.928223,294.586334 599.611328,295.305542 
	C606.559570,296.388245 613.170471,295.730560 619.796326,291.374847 
	C621.549194,290.005280 623.302002,288.635712 625.703735,287.170593 
	C626.175354,286.791168 626.646912,286.411774 627.561829,285.895020 
	C627.852905,285.723206 628.009766,285.468719 628.709412,284.970123 
	C634.532104,280.293854 638.706299,274.429382 642.723328,266.473755 
	C635.813171,267.846680 630.405090,268.921173 624.840515,269.719208 
	C624.840515,269.719208 624.402954,269.725952 624.402954,269.725952 
	C624.402954,269.725952 624.249207,270.126251 624.131958,270.118225 
M589.950317,306.062805 
	C589.950317,306.062805 590.004883,306.158997 589.135376,306.079346 
	C582.882446,306.343964 576.629456,306.608582 570.636719,306.862183 
	C577.355286,295.499451 577.663025,283.142761 575.583862,269.468292 
	C566.965027,276.806183 560.439087,284.441437 557.595215,294.513580 
	C552.713440,311.803619 561.040039,324.360596 577.948608,324.976379 
	C580.627869,324.716705 583.307068,324.457062 586.670044,324.150909 
	C586.993042,323.847137 587.315979,323.543365 588.221802,323.510315 
	C588.842407,323.389374 589.462952,323.268402 590.789307,323.198273 
	C591.863647,322.772797 592.938049,322.347321 594.513855,322.012695 
	C595.014832,321.677155 595.515747,321.341614 596.546753,320.812653 
	C597.061707,320.579803 597.576660,320.346985 598.828735,320.095367 
	C604.284485,316.963440 609.740234,313.831512 615.195984,310.699585 
	C615.057800,309.965759 614.919617,309.231903 614.781494,308.498047 
	C608.889038,307.823242 602.996521,307.148407 596.382446,306.208771 
	C596.127747,306.191467 595.873108,306.174194 595.219421,305.650055 
	C593.492493,305.765472 591.765625,305.880890 589.950317,306.062805 
M628.635742,259.067108 
	C628.885437,258.965302 629.029114,258.780884 629.780334,258.373657 
	C630.352112,257.948181 630.923828,257.522705 631.768921,257.201508 
	C631.768921,257.201508 631.991577,257.011780 632.671082,256.918976 
	C643.713989,249.220337 649.761719,238.434845 652.844849,225.817322 
	C652.461243,225.404053 652.077698,224.990784 651.694092,224.577515 
	C645.361694,228.334686 639.029297,232.091873 632.024658,235.923386 
	C628.824463,238.588120 625.624268,241.252853 621.748657,243.877151 
	C620.360840,244.850357 618.973022,245.823578 618.379211,246.239990 
	C615.948730,240.347443 613.594604,234.640152 611.098816,228.224838 
	C608.345215,223.834534 605.591614,219.444244 602.838013,215.053940 
	C602.169739,215.178940 601.501465,215.303940 600.833191,215.428940 
	C599.808289,221.171707 598.075867,226.895370 597.920166,232.661591 
	C597.671021,241.890350 599.264221,250.853104 607.172546,258.003510 
	C610.559570,262.155670 614.459839,264.572723 620.658630,261.827240 
	C622.785889,261.143250 624.913147,260.459259 627.548828,259.793976 
	C627.791016,259.569885 628.033142,259.345825 628.635742,259.067108 
M398.574646,323.373688 
	C399.417328,323.482269 400.260040,323.590851 401.657501,324.303986 
	C406.119446,324.467987 410.657837,325.231781 415.027832,324.674591 
	C424.962463,323.407928 430.393768,317.537994 432.004089,307.843567 
	C434.051575,295.517395 428.771484,285.846741 421.120270,277.025879 
	C418.936279,274.508026 416.393921,272.301086 413.025269,268.972839 
	C411.147614,282.960144 411.746704,294.950806 417.006134,305.742096 
	C411.072906,305.742096 405.522491,305.742096 399.257660,305.616486 
	C398.778076,305.672668 398.298492,305.728821 397.750458,305.552094 
	C397.750458,305.552094 397.395935,305.554565 397.395935,305.554565 
	C397.395935,305.554565 397.284454,305.837067 396.337921,305.798096 
	C388.919464,306.745300 381.500977,307.692474 374.082520,308.639648 
	C374.044434,309.158142 374.006317,309.676636 373.968201,310.195129 
	C381.263184,315.763367 388.870575,320.775391 398.574646,323.373688 
M801.642456,497.280579 
	C801.694031,480.359894 801.765503,463.439240 801.777588,446.518555 
	C801.779602,443.695374 801.644104,440.978333 805.748474,441.441833 
	C810.370667,441.963806 811.852905,439.323120 812.096252,434.952301 
	C805.625000,434.952301 799.332947,434.937408 793.041077,434.956818 
	C787.560974,434.973724 787.315430,435.317352 788.364380,440.612854 
	C791.077393,441.468353 793.586487,442.259583 795.965332,443.971466 
	C795.965332,461.931335 795.965332,479.891205 795.965332,498.124542 
	C798.046875,497.962280 799.512817,497.848022 801.642456,497.280579 
M222.371902,495.250763 
	C222.700333,494.118927 223.028778,492.987091 223.372238,491.803436 
	C217.903824,491.803436 212.981232,491.803436 207.510162,491.216003 
	C207.705719,489.630768 207.684128,487.980988 208.133072,486.471100 
	C210.542953,478.365997 213.083466,470.299866 215.552917,462.212341 
	C218.282196,453.273743 220.983414,444.326569 223.757233,435.184082 
	C216.202988,435.184082 209.298599,435.184082 202.504715,435.184082 
	C202.383453,444.340668 210.281067,440.013062 214.605911,442.215210 
	C213.859848,444.907471 213.235809,447.289703 212.539566,449.650574 
	C208.318802,463.962372 204.081573,478.269318 199.309616,493.149597 
	C198.871826,494.654419 198.434052,496.159210 197.738846,498.548889 
	C206.040283,498.001190 213.531219,497.506958 221.585358,496.815308 
	C221.704041,496.449127 221.822708,496.082977 222.371902,495.250763 
M680.707153,443.080414 
	C680.707153,440.479980 680.707153,437.879578 680.707153,435.391693 
	C676.603149,434.407166 674.714783,435.519867 674.950928,439.456085 
	C675.079834,441.604156 674.971252,443.766388 674.971252,445.922241 
	C674.971008,463.144653 674.971130,480.367065 674.971130,497.733215 
	C677.061951,497.733215 678.767639,497.733215 680.500977,497.733215 
	C680.500977,494.977325 680.500977,492.514618 680.730957,489.138763 
	C680.730957,484.270325 680.730957,479.401886 680.730957,474.533417 
	C683.749695,480.856659 685.842224,487.275574 687.324280,493.832458 
	C688.272949,498.029816 690.340149,498.870239 694.488098,497.436829 
	C691.833923,488.174316 689.327209,478.898438 686.479980,469.728241 
	C685.191956,465.579651 685.110718,461.819824 686.656067,457.661804 
	C689.338623,450.443939 691.453735,443.015198 693.853271,435.529846 
	C688.021667,435.103760 688.016663,435.102142 686.532654,439.669250 
	C684.920044,444.631775 683.317932,449.597717 681.711182,454.562134 
	C681.475830,454.492126 681.240417,454.422150 681.005066,454.352142 
	C680.837097,450.884155 680.669189,447.416138 680.707153,443.080414 
M751.279358,439.725311 
	C748.848328,434.823425 745.118225,433.051025 739.433960,434.388092 
	C734.603760,435.524323 732.938538,439.026398 732.947754,443.682526 
	C732.977722,458.793152 732.982788,473.903900 732.953918,489.014526 
	C732.945618,493.361908 734.168457,496.926941 738.692261,498.396515 
	C743.540405,499.971405 747.896729,498.327026 751.383728,493.267517 
	C751.596252,492.136932 751.990723,491.006836 751.993835,489.875702 
	C752.036438,474.443573 752.043091,459.011292 751.986694,443.579285 
	C751.982849,442.518341 751.408020,441.459534 751.279358,439.725311 
M142.012314,441.955536 
	C142.054031,458.294495 142.095749,474.633423 142.084625,491.704376 
	C144.286835,497.866425 147.417130,499.739929 153.814880,498.724854 
	C158.635590,497.959961 160.996231,494.912079 161.016083,489.024689 
	C161.067001,473.922272 161.066086,458.819397 161.005325,443.717041 
	C160.983017,438.176147 158.576965,435.059540 154.061295,434.290344 
	C147.605743,433.190735 144.197052,435.141144 142.012314,441.955536 
M438.084381,491.712097 
	C440.301941,497.876160 443.406677,499.732452 449.821899,498.729919 
	C454.617950,497.980408 456.988220,494.924866 457.011841,489.014191 
	C457.072266,473.911011 457.078033,458.807190 457.009613,443.704071 
	C456.983429,437.930969 454.429321,434.847351 449.561554,434.240784 
	C443.108246,433.436615 440.139343,435.226501 438.020752,441.959167 
	C438.059265,458.299774 438.097778,474.640350 438.084381,491.712097 
M475.143707,257.395294 
	C481.469788,265.289520 487.795868,273.183746 494.187103,281.159332 
	C522.976196,248.830307 544.645447,212.929199 558.135559,172.308182 
	C562.885742,158.004929 567.692993,143.707367 566.130493,128.076050 
	C562.236328,89.118652 524.705444,55.498055 477.785217,65.768433 
	C440.249023,73.984734 413.069397,114.751556 425.350677,155.698563 
	C436.320679,192.273605 452.285614,226.030151 475.143707,257.395294 
M572.952820,391.423096 
	C578.596191,395.133850 584.239624,398.844604 590.126831,402.715698 
	C591.581238,400.403809 592.781677,398.495544 594.105469,396.391235 
	C592.786743,395.473541 591.867371,394.800964 590.916260,394.176849 
	C577.849426,385.602966 564.730652,377.106262 551.778259,368.362885 
	C550.412659,367.441101 550.020142,365.077698 549.176147,363.383148 
	C550.958191,363.605194 553.089478,363.272278 554.465881,364.138702 
	C563.887451,370.069092 573.145874,376.258514 582.466919,382.348999 
	C587.270325,385.487610 592.094604,388.594482 597.156799,391.876038 
	C598.634705,389.581787 599.775085,387.811401 601.198792,385.601227 
	C599.005981,384.144592 597.112793,382.871094 595.203979,381.621552 
	C582.963562,373.608795 570.675354,365.667175 558.541321,357.496552 
	C557.236755,356.618134 556.822388,354.417786 555.995056,352.830658 
	C557.793335,352.936371 559.955139,352.433716 561.326782,353.253387 
	C567.175354,356.748413 572.783997,360.643921 578.491882,364.375488 
	C586.933167,369.894135 595.384277,375.397736 603.667664,380.801025 
	C607.239685,378.319641 606.233398,376.601868 603.746704,374.743835 
	C590.816223,365.082550 577.692322,355.657806 565.109436,345.560394 
	C554.173401,336.784454 542.755127,335.565521 530.144714,340.849518 
	C528.918701,341.363220 526.837158,341.659241 526.001221,340.992554 
	C519.031982,335.434326 512.261902,329.626343 505.119965,323.632233 
	C511.013641,318.165619 516.363647,313.452942 521.432617,308.455231 
	C537.327026,292.784241 553.008057,276.906769 565.002747,257.877136 
	C583.835571,227.998688 590.646057,195.460480 586.363586,160.507980 
	C586.153625,158.794205 585.594604,157.123184 584.912781,154.215851 
	C569.183655,216.336044 538.798523,268.513519 494.828705,313.593811 
	C450.256897,267.736359 419.617065,214.808563 404.373962,152.156235 
	C403.696716,154.701187 402.953339,156.397095 402.831573,158.136520 
	C402.204620,167.094284 401.027710,176.088440 401.345459,185.023560 
	C402.343872,213.097382 410.171478,239.085754 426.934418,261.972687 
	C440.062805,279.897278 455.221466,296.022583 471.307037,311.297363 
	C475.578461,315.353485 479.949646,319.304596 484.603699,323.607819 
	C477.088318,329.981812 470.015259,335.980652 462.910217,342.006622 
	C452.302155,334.718750 440.977539,334.319733 429.537262,337.340424 
	C408.397339,342.922241 391.715790,354.559723 383.099335,375.314392 
	C375.316498,394.061035 386.284332,410.702271 406.496582,410.931915 
	C431.068634,411.211090 449.904205,399.984558 463.749420,380.158539 
	C469.242340,372.292786 471.692505,363.401001 469.972473,353.643494 
	C469.792786,352.623993 470.262970,350.972443 471.025604,350.384125 
	C478.887207,344.319458 486.871216,338.413452 494.909729,332.396912 
	C502.022156,337.760529 508.946594,343.216003 516.139404,348.291138 
	C519.003723,350.312195 520.166504,352.473969 520.355286,355.994843 
	C520.960754,367.285187 524.454163,377.083557 535.141663,383.105255 
	C551.482361,392.312042 567.669495,401.791260 584.198425,411.314178 
	C585.277222,409.773651 586.081360,408.625366 587.048889,407.243652 
	C585.701721,406.302582 584.654358,405.533264 583.570312,404.819489 
	C570.794861,396.407104 557.980286,388.053040 545.274719,379.536407 
	C543.600586,378.414185 542.475708,376.472504 541.096375,374.910370 
	C541.485535,374.314331 541.874634,373.718262 542.263794,373.122223 
	C544.072388,373.729797 546.091431,374.006409 547.654297,375.000336 
	C555.934814,380.266144 564.100586,385.712250 572.952820,391.423096 
M95.076569,453.299103 
	C94.610619,450.237885 94.144661,447.176636 93.686287,444.165192 
	C89.527336,443.879761 88.354073,446.059143 87.980995,449.283508 
	C87.315857,455.032043 86.502533,460.763428 85.751183,466.501984 
	C84.648811,464.876068 84.314728,463.160370 84.111694,461.429260 
	C83.259697,454.165161 82.278961,446.910309 81.680458,439.624542 
	C81.298988,434.980713 79.151001,434.109070 75.078468,435.525757 
	C77.449913,456.447693 79.800117,477.182251 82.167542,498.068726 
	C84.150848,497.976166 85.606796,497.908234 87.382439,497.825378 
	C88.581139,488.607666 89.756882,479.566406 90.932625,470.525177 
	C91.253510,470.549072 91.574387,470.572968 91.895264,470.596893 
	C93.068748,479.614624 94.242226,488.632324 95.434814,497.796967 
	C97.341057,497.796967 98.926659,497.796967 100.822548,497.796967 
	C103.111267,476.870514 105.377968,456.145386 107.639221,435.470123 
	C102.928207,434.038666 101.240646,435.589355 100.891052,440.029510 
	C100.169586,449.192932 98.971939,458.318848 97.970192,467.460205 
	C97.729309,467.451019 97.488426,467.441803 97.247543,467.432617 
	C96.551300,463.013092 95.855049,458.593536 95.076569,453.299103 
M395.258270,455.658264 
	C394.815125,459.604858 394.371979,463.551453 393.928833,467.498047 
	C393.701202,467.503052 393.473572,467.508087 393.245941,467.513092 
	C392.063995,459.729767 390.882080,451.946411 389.704803,444.193573 
	C385.661346,443.837891 384.364319,445.932404 383.976105,449.189087 
	C383.293976,454.911469 382.494171,460.619843 381.743652,466.334076 
	C379.669952,457.438019 378.487244,448.577026 377.700867,439.680969 
	C377.291718,435.052582 375.227173,434.082336 371.079834,435.548309 
	C373.446838,456.417542 375.800018,477.164551 378.170471,498.064301 
	C380.134491,497.977692 381.592926,497.913391 383.384705,497.834381 
	C384.655029,488.017670 385.903137,478.372406 387.151276,468.727112 
	C387.329071,468.747314 387.506866,468.767487 387.684662,468.787689 
	C388.937317,478.469360 390.190002,488.151031 391.474976,498.082153 
	C393.500214,497.962830 395.095001,497.868896 396.844269,497.765869 
	C399.134399,476.697296 401.387543,455.968933 403.625519,435.380188 
	C398.908051,434.139679 397.125397,435.662323 396.916870,439.870605 
	C396.670288,444.847107 395.934479,449.799408 395.258270,455.658264 
M569.107727,486.474030 
	C569.606018,490.230469 570.104248,493.986877 570.591980,497.663574 
	C572.909790,497.663574 574.805542,497.663574 576.854919,497.663574 
	C574.174866,478.032135 571.543152,458.782532 568.922058,439.531464 
	C568.422607,435.862915 566.634583,434.134857 562.397949,435.442810 
	C559.572449,456.085785 556.727966,476.867279 553.858276,497.832520 
	C556.303345,497.832520 558.084473,497.832520 560.162231,497.832520 
	C561.744019,484.901428 563.306763,472.126007 564.869507,459.350586 
	C565.226929,459.364960 565.584290,459.379333 565.941711,459.393707 
	C566.956543,468.122192 567.971375,476.850708 569.107727,486.474030 
M259.539154,485.889923 
	C258.998627,489.778839 258.458099,493.667725 257.898499,497.693909 
	C260.252716,497.693909 262.123291,497.693909 264.185486,497.693909 
	C265.768250,484.798065 267.313690,472.206360 268.859131,459.614655 
	C269.223083,459.643524 269.587036,459.672363 269.950989,459.701233 
	C271.479279,472.362732 273.007538,485.024231 274.536713,497.693115 
	C276.858521,497.693115 278.752472,497.693115 280.860291,497.693115 
	C278.157379,477.921631 275.527954,458.513245 272.831482,439.114197 
	C272.306610,435.338379 270.120972,434.171387 266.337860,435.542267 
	C264.113220,452.113342 261.904846,468.563354 259.539154,485.889923 
M849.808411,462.120819 
	C848.158813,473.911774 846.509216,485.702728 844.825195,497.739624 
	C847.205994,497.739624 849.084961,497.739624 851.189209,497.739624 
	C852.767334,484.832458 854.313171,472.189636 855.859009,459.546783 
	C856.210083,459.572998 856.561157,459.599213 856.912292,459.625397 
	C858.474731,472.385132 860.037170,485.144836 861.622742,498.093475 
	C864.096375,497.977203 865.851074,497.894714 867.877869,497.799438 
	C865.773254,482.416565 863.725464,467.465668 861.683533,452.513947 
	C861.076965,448.072693 860.781433,443.558289 859.737793,439.223206 
	C859.345459,437.593445 857.234863,436.377289 855.907593,434.972626 
	C854.912354,436.320679 853.279114,437.560760 853.029663,439.035034 
	C851.783142,446.400513 850.899719,453.827423 849.808411,462.120819 
M499.357971,439.054474 
	C502.907959,440.246796 506.457977,441.439148 510.568451,442.819733 
	C505.106201,460.838867 499.535950,479.214264 493.827667,498.044983 
	C500.336884,498.044983 506.332520,497.798401 512.296936,498.123779 
	C516.988159,498.379730 518.921936,496.299103 519.383850,491.388672 
	C513.894714,491.388672 508.649475,491.388672 502.633331,491.388672 
	C508.472382,472.240601 514.091858,453.812683 519.765869,435.205811 
	C512.180359,435.205811 505.273956,435.205811 498.050079,435.205811 
	C498.448120,436.446869 498.747620,437.380768 499.357971,439.054474 
z"/>
<path fill="#030303" opacity="1.000000" stroke="none" 
	d="
M474.934326,257.106323 
	C452.285614,226.030151 436.320679,192.273605 425.350677,155.698563 
	C413.069397,114.751556 440.249023,73.984734 477.785217,65.768433 
	C524.705444,55.498055 562.236328,89.118652 566.130493,128.076050 
	C567.692993,143.707367 562.885742,158.004929 558.135559,172.308182 
	C544.645447,212.929199 522.976196,248.830307 494.187103,281.159332 
	C487.795868,273.183746 481.469788,265.289520 474.934326,257.106323 
M526.998352,157.413528 
	C528.971497,151.330429 531.960571,145.370529 532.716187,139.139786 
	C534.546509,124.046829 525.912170,109.254097 512.328552,102.216400 
	C498.451660,95.026772 481.577087,96.761131 469.780060,106.589493 
	C457.735321,116.624222 452.523438,132.987991 457.274811,147.492630 
	C462.392212,163.114685 473.287872,172.659912 489.596405,174.855957 
	C505.151611,176.950577 517.406067,170.541412 526.998352,157.413528 
z"/>
<path fill="#070707" opacity="1.000000" stroke="none" 
	d="
M572.629517,391.259491 
	C564.100586,385.712250 555.934814,380.266144 547.654297,375.000336 
	C546.091431,374.006409 544.072388,373.729797 542.263794,373.122223 
	C541.874634,373.718262 541.485535,374.314331 541.096375,374.910370 
	C542.475708,376.472504 543.600586,378.414185 545.274719,379.536407 
	C557.980286,388.053040 570.794861,396.407104 583.570312,404.819489 
	C584.654358,405.533264 585.701721,406.302582 587.048889,407.243652 
	C586.081360,408.625366 585.277222,409.773651 584.198425,411.314178 
	C567.669495,401.791260 551.482361,392.312042 535.141663,383.105255 
	C524.454163,377.083557 520.960754,367.285187 520.355286,355.994843 
	C520.166504,352.473969 519.003723,350.312195 516.139404,348.291138 
	C508.946594,343.216003 502.022156,337.760529 494.909729,332.396912 
	C486.871216,338.413452 478.887207,344.319458 471.025604,350.384125 
	C470.262970,350.972443 469.792786,352.623993 469.972473,353.643494 
	C471.692505,363.401001 469.242340,372.292786 463.749420,380.158539 
	C449.904205,399.984558 431.068634,411.211090 406.496582,410.931915 
	C386.284332,410.702271 375.316498,394.061035 383.099335,375.314392 
	C391.715790,354.559723 408.397339,342.922241 429.537262,337.340424 
	C440.977539,334.319733 452.302155,334.718750 462.910217,342.006622 
	C470.015259,335.980652 477.088318,329.981812 484.603699,323.607819 
	C479.949646,319.304596 475.578461,315.353485 471.307037,311.297363 
	C455.221466,296.022583 440.062805,279.897278 426.934418,261.972687 
	C410.171478,239.085754 402.343872,213.097382 401.345459,185.023560 
	C401.027710,176.088440 402.204620,167.094284 402.831573,158.136520 
	C402.953339,156.397095 403.696716,154.701187 404.373962,152.156235 
	C419.617065,214.808563 450.256897,267.736359 494.828705,313.593811 
	C538.798523,268.513519 569.183655,216.336044 584.912781,154.215851 
	C585.594604,157.123184 586.153625,158.794205 586.363586,160.507980 
	C590.646057,195.460480 583.835571,227.998688 565.002747,257.877136 
	C553.008057,276.906769 537.327026,292.784241 521.432617,308.455231 
	C516.363647,313.452942 511.013641,318.165619 505.119965,323.632233 
	C512.261902,329.626343 519.031982,335.434326 526.001221,340.992554 
	C526.837158,341.659241 528.918701,341.363220 530.144714,340.849518 
	C542.755127,335.565521 554.173401,336.784454 565.109436,345.560394 
	C577.692322,355.657806 590.816223,365.082550 603.746704,374.743835 
	C606.233398,376.601868 607.239685,378.319641 603.667664,380.801025 
	C595.384277,375.397736 586.933167,369.894135 578.491882,364.375488 
	C572.783997,360.643921 567.175354,356.748413 561.326782,353.253387 
	C559.955139,352.433716 557.793335,352.936371 555.995056,352.830658 
	C556.822388,354.417786 557.236755,356.618134 558.541321,357.496552 
	C570.675354,365.667175 582.963562,373.608795 595.203979,381.621552 
	C597.112793,382.871094 599.005981,384.144592 601.198792,385.601227 
	C599.775085,387.811401 598.634705,389.581787 597.156799,391.876038 
	C592.094604,388.594482 587.270325,385.487610 582.466919,382.348999 
	C573.145874,376.258514 563.887451,370.069092 554.465881,364.138702 
	C553.089478,363.272278 550.958191,363.605194 549.176147,363.383118 
	C550.020142,365.077698 550.412659,367.441101 551.778259,368.362885 
	C564.730652,377.106262 577.849426,385.602966 590.916260,394.176849 
	C591.867371,394.800964 592.786743,395.473541 594.105469,396.391235 
	C592.781677,398.495544 591.581238,400.403809 590.126831,402.715698 
	C584.239624,398.844604 578.596191,395.133850 572.629517,391.259491 
z"/>
<path fill="#36649C" opacity="1.000000" stroke="none" 
	d="
M95.117683,453.736572 
	C95.855049,458.593536 96.551300,463.013092 97.247543,467.432617 
	C97.488426,467.441803 97.729309,467.451019 97.970192,467.460205 
	C98.971939,458.318848 100.169586,449.192932 100.891052,440.029510 
	C101.240646,435.589355 102.928207,434.038666 107.639221,435.470123 
	C105.377968,456.145386 103.111267,476.870514 100.822548,497.796967 
	C98.926659,497.796967 97.341057,497.796967 95.434814,497.796967 
	C94.242226,488.632324 93.068748,479.614624 91.895264,470.596893 
	C91.574387,470.572968 91.253510,470.549072 90.932625,470.525177 
	C89.756882,479.566406 88.581139,488.607666 87.382439,497.825378 
	C85.606796,497.908234 84.150848,497.976166 82.167542,498.068726 
	C79.800117,477.182251 77.449913,456.447693 75.078468,435.525757 
	C79.151001,434.109070 81.298988,434.980713 81.680458,439.624542 
	C82.278961,446.910309 83.259697,454.165161 84.111694,461.429260 
	C84.314728,463.160370 84.648811,464.876068 85.751183,466.501984 
	C86.502533,460.763428 87.315857,455.032043 87.980995,449.283508 
	C88.354073,446.059143 89.527336,443.879761 93.686287,444.165192 
	C94.144661,447.176636 94.610619,450.237885 95.117683,453.736572 
z"/>
<path fill="#36649C" opacity="1.000000" stroke="none" 
	d="
M395.334503,455.210205 
	C395.934479,449.799408 396.670288,444.847107 396.916870,439.870605 
	C397.125397,435.662323 398.908051,434.139679 403.625519,435.380188 
	C401.387543,455.968933 399.134399,476.697296 396.844269,497.765869 
	C395.095001,497.868896 393.500214,497.962830 391.474976,498.082153 
	C390.190002,488.151031 388.937317,478.469360 387.684662,468.787689 
	C387.506866,468.767487 387.329071,468.747314 387.151276,468.727112 
	C385.903137,478.372406 384.655029,488.017670 383.384705,497.834381 
	C381.592926,497.913391 380.134491,497.977692 378.170471,498.064301 
	C375.800018,477.164551 373.446838,456.417542 371.079834,435.548309 
	C375.227173,434.082336 377.291718,435.052582 377.700867,439.680969 
	C378.487244,448.577026 379.669952,457.438019 381.743652,466.334076 
	C382.494171,460.619843 383.293976,454.911469 383.976105,449.189087 
	C384.364319,445.932404 385.661346,443.837891 389.704803,444.193573 
	C390.882080,451.946411 392.063995,459.729767 393.245941,467.513092 
	C393.473572,467.508087 393.701202,467.503052 393.928833,467.498047 
	C394.371979,463.551453 394.815125,459.604858 395.334503,455.210205 
z"/>
<path fill="#40B5DE" opacity="1.000000" stroke="none" 
	d="
M399.972107,305.742096 
	C405.522491,305.742096 411.072906,305.742096 417.006134,305.742096 
	C411.746704,294.950806 411.147614,282.960144 413.025269,268.972839 
	C416.393921,272.301086 418.936279,274.508026 421.120270,277.025879 
	C428.771484,285.846741 434.051575,295.517395 432.004089,307.843567 
	C430.393768,317.537994 424.962463,323.407928 415.027832,324.674591 
	C410.657837,325.231781 406.119446,324.467987 401.556885,323.685608 
	C402.256683,318.132935 403.190948,313.211700 403.675201,308.246552 
	C403.730865,307.675598 401.277313,306.859924 399.939545,306.055389 
	C399.891907,305.953064 399.972107,305.742096 399.972107,305.742096 
z"/>
<path fill="#3465A2" opacity="1.000000" stroke="none" 
	d="
M577.299744,324.713684 
	C561.040039,324.360596 552.713440,311.803619 557.595215,294.513580 
	C560.439087,284.441437 566.965027,276.806183 575.583862,269.468292 
	C577.663025,283.142761 577.355286,295.499451 570.636719,306.862183 
	C576.629456,306.608582 582.882446,306.343964 589.334473,306.339539 
	C588.689819,306.735870 587.846130,306.872040 586.578979,306.999329 
	C581.447876,306.324738 578.399963,308.101166 577.907532,313.021210 
	C577.519226,316.900146 577.488953,320.814850 577.299744,324.713684 
z"/>
<path fill="#38659B" opacity="1.000000" stroke="none" 
	d="
M438.257751,441.055481 
	C440.139343,435.226501 443.108246,433.436615 449.561554,434.240784 
	C454.429321,434.847351 456.983429,437.930969 457.009613,443.704071 
	C457.078033,458.807190 457.072266,473.911011 457.011841,489.014191 
	C456.988220,494.924866 454.617950,497.980408 449.821899,498.729919 
	C443.406677,499.732452 440.301941,497.876160 438.382355,491.034821 
	C438.759918,474.358307 438.844727,458.359100 438.891052,442.359772 
	C438.892303,441.925598 438.478180,441.490265 438.257751,441.055481 
M450.969025,482.410889 
	C450.968475,470.124390 450.972351,457.837921 450.963837,445.551422 
	C450.962097,443.054626 451.312408,440.200623 447.611755,440.093719 
	C443.660400,439.979523 443.786377,442.904358 443.785706,445.646942 
	C443.783051,456.605164 443.767517,467.563354 443.769928,478.521576 
	C443.770752,482.173737 443.522491,485.863190 443.987183,489.458160 
	C444.153015,490.741180 446.342621,492.899048 447.161133,492.710968 
	C448.607330,492.378571 450.289398,490.759949 450.808807,489.300964 
	C451.438751,487.531433 450.965607,485.369171 450.969025,482.410889 
z"/>
<path fill="#38659B" opacity="1.000000" stroke="none" 
	d="
M142.247009,441.050415 
	C144.197052,435.141144 147.605743,433.190735 154.061295,434.290344 
	C158.576965,435.059540 160.983017,438.176147 161.005325,443.717041 
	C161.066086,458.819397 161.067001,473.922272 161.016083,489.024689 
	C160.996231,494.912079 158.635590,497.959961 153.814880,498.724854 
	C147.417130,499.739929 144.286835,497.866425 142.381836,491.026947 
	C142.759033,474.349426 142.844360,458.349335 142.890610,442.349121 
	C142.891861,441.916870 142.471024,441.483337 142.247009,441.050415 
M147.773865,477.492157 
	C147.777023,480.978943 147.791443,484.465729 147.779678,487.952484 
	C147.770569,490.651978 148.087585,493.110565 151.679169,492.936371 
	C155.010361,492.774841 154.982468,490.363373 154.979019,487.923157 
	C154.959000,473.810028 154.975204,459.696930 154.963623,445.583801 
	C154.961594,443.097473 155.327164,440.227295 151.637634,440.089294 
	C147.687286,439.941559 147.781311,442.861328 147.781403,445.611603 
	C147.781799,455.905914 147.776718,466.200195 147.773865,477.492157 
z"/>
<path fill="#38659B" opacity="1.000000" stroke="none" 
	d="
M569.046997,486.026611 
	C567.971375,476.850708 566.956543,468.122192 565.941711,459.393707 
	C565.584290,459.379333 565.226929,459.364960 564.869507,459.350586 
	C563.306763,472.126007 561.744019,484.901428 560.162231,497.832520 
	C558.084473,497.832520 556.303345,497.832520 553.858276,497.832520 
	C556.727966,476.867279 559.572449,456.085785 562.397949,435.442810 
	C566.634583,434.134857 568.422607,435.862915 568.922058,439.531464 
	C571.543152,458.782532 574.174866,478.032135 576.854919,497.663574 
	C574.805542,497.663574 572.909790,497.663574 570.591980,497.663574 
	C570.104248,493.986877 569.606018,490.230469 569.046997,486.026611 
z"/>
<path fill="#38659B" opacity="1.000000" stroke="none" 
	d="
M259.617798,485.451660 
	C261.904846,468.563354 264.113220,452.113342 266.337860,435.542267 
	C270.120972,434.171387 272.306610,435.338379 272.831482,439.114197 
	C275.527954,458.513245 278.157379,477.921631 280.860291,497.693115 
	C278.752472,497.693115 276.858521,497.693115 274.536713,497.693115 
	C273.007538,485.024231 271.479279,472.362732 269.950989,459.701233 
	C269.587036,459.672363 269.223083,459.643524 268.859131,459.614655 
	C267.313690,472.206360 265.768250,484.798065 264.185486,497.693909 
	C262.123291,497.693909 260.252716,497.693909 257.898499,497.693909 
	C258.458099,493.667725 258.998627,489.778839 259.617798,485.451660 
z"/>
<path fill="#38659B" opacity="1.000000" stroke="none" 
	d="
M849.848511,461.676788 
	C850.899719,453.827423 851.783142,446.400513 853.029663,439.035034 
	C853.279114,437.560760 854.912354,436.320679 855.907593,434.972595 
	C857.234863,436.377289 859.345459,437.593445 859.737793,439.223206 
	C860.781433,443.558289 861.076965,448.072693 861.683533,452.513947 
	C863.725464,467.465668 865.773254,482.416565 867.877869,497.799438 
	C865.851074,497.894714 864.096375,497.977203 861.622742,498.093475 
	C860.037170,485.144836 858.474731,472.385132 856.912292,459.625397 
	C856.561157,459.599213 856.210083,459.572998 855.859009,459.546783 
	C854.313171,472.189636 852.767334,484.832458 851.189209,497.739624 
	C849.084961,497.739624 847.205994,497.739624 844.825195,497.739624 
	C846.509216,485.702728 848.158813,473.911774 849.848511,461.676788 
z"/>
<path fill="#285C97" opacity="1.000000" stroke="none" 
	d="
M389.028625,279.003998 
	C386.402283,266.826782 389.637634,255.755676 395.123871,244.861313 
	C406.479095,256.703186 409.110901,278.668579 399.173157,290.412750 
	C397.264740,292.668091 393.535461,293.382629 390.088470,294.561462 
	C388.680267,294.609528 387.829803,294.904144 386.979340,295.198730 
	C385.603485,295.323639 384.227631,295.448547 382.545715,295.105591 
	C383.357391,293.775360 384.475128,292.912994 385.652283,292.004791 
	C385.449341,291.089508 384.943970,290.098419 385.082489,289.207428 
	C385.620331,285.747650 382.345703,280.275146 389.612976,280.194885 
	C389.418182,279.797943 389.223389,279.400970 389.028625,279.003998 
z"/>
<path fill="#37659D" opacity="1.000000" stroke="none" 
	d="
M750.927124,493.957581 
	C747.896729,498.327026 743.540405,499.971405 738.692261,498.396515 
	C734.168457,496.926941 732.945618,493.361908 732.953918,489.014526 
	C732.982788,473.903900 732.977722,458.793152 732.947754,443.682526 
	C732.938538,439.026398 734.603760,435.524323 739.433960,434.388092 
	C745.118225,433.051025 748.848328,434.823425 751.166077,440.573853 
	C751.010864,458.934143 750.968994,476.445862 750.927124,493.957581 
M744.944702,440.789856 
	C739.810059,439.551575 738.840454,440.140320 738.814880,445.119751 
	C738.742249,459.279602 738.747070,473.440216 738.806091,487.600189 
	C738.829041,493.099396 740.233459,493.922974 746.339539,491.508514 
	C746.551147,490.899323 746.946106,490.290588 746.947693,489.680878 
	C746.986633,474.449951 747.009277,459.218811 746.929565,443.988220 
	C746.924561,443.030945 746.063721,442.078094 744.944702,440.789856 
z"/>
<path fill="#36649C" opacity="1.000000" stroke="none" 
	d="
M499.202576,438.684570 
	C498.747620,437.380768 498.448120,436.446869 498.050079,435.205811 
	C505.273956,435.205811 512.180359,435.205811 519.765869,435.205811 
	C514.091858,453.812683 508.472382,472.240601 502.633331,491.388672 
	C508.649475,491.388672 513.894714,491.388672 519.383850,491.388672 
	C518.921936,496.299103 516.988159,498.379730 512.296936,498.123779 
	C506.332520,497.798401 500.336884,498.044983 493.827667,498.044983 
	C499.535950,479.214264 505.106201,460.838867 510.568451,442.819733 
	C506.457977,441.439148 502.907959,440.246796 499.202576,438.684570 
z"/>
<path fill="#3A679F" opacity="1.000000" stroke="none" 
	d="
M680.501221,443.948151 
	C680.669189,447.416138 680.837097,450.884155 681.005066,454.352142 
	C681.240417,454.422150 681.475830,454.492126 681.711182,454.562134 
	C683.317932,449.597717 684.920044,444.631775 686.532654,439.669250 
	C688.016663,435.102142 688.021667,435.103760 693.853271,435.529846 
	C691.453735,443.015198 689.338623,450.443939 686.656067,457.661804 
	C685.110718,461.819824 685.191956,465.579651 686.479980,469.728241 
	C689.327209,478.898438 691.833923,488.174316 694.488098,497.436829 
	C690.340149,498.870239 688.272949,498.029816 687.324280,493.832458 
	C685.842224,487.275574 683.749695,480.856659 680.730957,474.533417 
	C680.730957,479.401886 680.730957,484.270325 680.286987,489.718933 
	C679.265259,492.173248 678.687500,494.047363 677.984558,496.327728 
	C675.113831,492.340912 675.288330,439.980316 677.933044,437.096008 
	C678.815979,439.451813 679.658569,441.699982 680.501221,443.948151 
z"/>
<path fill="#60A3D9" opacity="1.000000" stroke="none" 
	d="
M629.970337,226.886612 
	C622.920105,229.623978 616.271729,226.688950 611.030640,218.654556 
	C604.350464,208.413940 604.160583,197.275665 606.219177,185.168320 
	C607.449829,185.808655 608.354187,186.279175 609.695068,187.223663 
	C616.407166,194.830612 622.453003,202.081711 624.172363,211.893097 
	C624.257812,212.380569 625.870239,212.600464 627.121094,212.842041 
	C628.761047,212.228943 630.051453,211.718765 632.203064,210.868103 
	C631.380798,216.767242 630.675537,221.826920 629.970337,226.886612 
z"/>
<path fill="#36649C" opacity="1.000000" stroke="none" 
	d="
M199.849838,492.577850 
	C204.081573,478.269318 208.318802,463.962372 212.539566,449.650574 
	C213.235809,447.289703 213.859848,444.907471 214.605911,442.215210 
	C210.281067,440.013062 202.383453,444.340668 202.504715,435.184082 
	C209.298599,435.184082 216.202988,435.184082 223.757233,435.184082 
	C220.983414,444.326569 218.282196,453.273743 215.552917,462.212341 
	C213.083466,470.299866 210.542953,478.365997 208.133072,486.471100 
	C207.684128,487.980988 207.705719,489.630768 207.943970,491.748657 
	C211.612488,492.173706 214.905350,491.671387 218.055847,492.135468 
	C219.495636,492.347565 220.654907,494.464050 221.941406,495.716797 
	C221.822708,496.082977 221.704041,496.449127 220.833832,496.909790 
	C214.844009,497.000336 209.594772,496.789062 204.371262,497.065033 
	C200.853943,497.250824 199.610031,495.835785 199.849838,492.577850 
z"/>
<path fill="#60A6DC" opacity="1.000000" stroke="none" 
	d="
M618.062500,184.977936 
	C618.068848,184.534988 618.075195,184.092026 618.068848,182.991150 
	C617.973572,181.895340 617.890930,181.457443 617.808289,181.019547 
	C617.857117,179.936996 617.906006,178.854431 617.975281,176.982590 
	C617.967957,175.132385 617.940186,174.071487 617.912476,173.010574 
	C617.971802,172.567520 618.031189,172.124466 618.297119,171.070312 
	C618.926331,167.985611 619.348999,165.512024 619.771606,163.038422 
	C619.882202,162.643311 619.992859,162.248199 620.380859,161.293228 
	C621.448914,158.159836 622.239685,155.586319 623.030396,153.012787 
	C623.433716,152.762939 623.837036,152.513092 624.578247,152.541534 
	C626.882690,155.663605 628.849243,158.507401 630.815796,161.351196 
	C631.158142,162.390182 631.500549,163.429153 632.032715,165.000549 
	C632.434937,165.793488 632.647400,166.054001 632.859924,166.314514 
	C632.931519,166.691940 633.003113,167.069366 633.166626,168.093079 
	C633.889221,173.484024 634.519897,178.228683 635.150513,182.973358 
	C635.087402,183.729691 635.024292,184.486038 634.749878,185.855804 
	C634.425049,187.320953 634.311462,188.172684 634.197876,189.024414 
	C633.907837,190.159515 633.617737,191.294617 632.929565,192.893951 
	C632.429382,193.896667 632.327148,194.435150 632.224915,194.973633 
	C632.224915,194.973633 632.040344,195.421570 631.776306,195.764771 
	C631.233887,196.339005 631.114319,196.634293 631.153503,196.993866 
	C631.153503,196.993866 630.959595,197.373611 630.719849,197.725662 
	C630.342712,198.382980 630.205322,198.688248 630.067993,198.993530 
	C629.758362,199.441330 629.448792,199.889114 628.683594,200.586365 
	C626.731018,199.658066 624.701172,198.778870 623.841370,197.244125 
	C621.637695,193.310791 619.954102,189.086121 618.062500,184.977936 
z"/>
<path fill="#31A0BF" opacity="1.000000" stroke="none" 
	d="
M364.099884,152.256058 
	C364.099884,152.256058 364.455688,152.191589 364.728088,152.519928 
	C366.932953,160.370285 369.601349,167.796387 370.597656,175.440430 
	C371.662476,183.610336 369.936981,191.579269 364.065674,198.126221 
	C361.560364,200.919861 359.757172,200.883698 358.126831,197.487366 
	C353.722778,188.312805 352.082550,178.716248 355.631470,169.032028 
	C357.772278,163.190125 361.232513,157.831711 364.099884,152.256058 
z"/>
<path fill="#60A6DC" opacity="1.000000" stroke="none" 
	d="
M611.240540,228.932861 
	C613.594604,234.640152 615.948730,240.347443 618.379211,246.239990 
	C618.973022,245.823578 620.360840,244.850357 622.482971,243.928879 
	C623.819153,244.231750 624.582581,244.327164 624.997986,244.758072 
	C629.244385,249.163116 626.652344,258.182617 620.701538,260.061462 
	C620.296448,260.189362 620.163635,261.179962 619.904236,261.769348 
	C614.459839,264.572723 610.559570,262.155670 607.064392,257.269470 
	C606.335083,254.203598 605.212524,251.875153 605.196716,249.539215 
	C605.163269,244.607712 605.681091,239.670349 606.026428,234.739136 
	C606.254272,231.484940 607.202759,228.801682 611.240540,228.932861 
z"/>
<path fill="#3A679F" opacity="1.000000" stroke="none" 
	d="
M796.095581,443.050812 
	C793.586487,442.259583 791.077393,441.468353 788.364380,440.612854 
	C787.315430,435.317352 787.560974,434.973724 793.041077,434.956818 
	C799.332947,434.937408 805.625000,434.952301 812.096252,434.952301 
	C811.852905,439.323120 810.370667,441.963806 805.748474,441.441833 
	C801.644104,440.978333 801.779602,443.695374 801.777588,446.518555 
	C801.765503,463.439240 801.694031,480.359894 801.035278,497.274261 
	C797.047729,496.797760 796.973877,494.397675 796.984802,491.718201 
	C797.044006,477.235199 797.043213,462.751709 796.971558,448.268829 
	C796.962891,446.528076 796.401001,444.790100 796.095581,443.050812 
z"/>
<path fill="#60A6DC" opacity="1.000000" stroke="none" 
	d="
M619.094177,291.528473 
	C613.170471,295.730560 606.559570,296.388245 599.296509,294.825592 
	C598.981750,294.345642 598.993469,293.945160 599.388916,293.949951 
	C604.502441,290.211517 602.622070,285.243530 602.897217,280.289185 
	C601.150513,280.607330 600.056519,280.806580 598.968018,280.734894 
	C599.210876,280.012085 599.448242,279.560211 599.685608,279.108337 
	C605.708557,276.628204 611.714417,274.105164 617.767578,271.701141 
	C619.114014,271.166412 620.626770,271.050659 622.509827,271.215820 
	C623.601624,278.678833 622.700745,285.367035 619.094177,291.528473 
z"/>
<path fill="#2D9EBF" opacity="1.000000" stroke="none" 
	d="
M353.030487,225.721771 
	C353.030487,225.721771 352.840820,225.569977 352.601227,225.388199 
	C352.106171,224.984421 351.944855,224.707581 351.903168,223.984375 
	C348.353210,216.385315 349.016174,209.598648 354.277649,203.289871 
	C357.571899,206.773193 360.538483,210.202698 363.439514,213.556381 
	C365.007233,209.983719 366.521149,206.533615 368.198975,203.380798 
	C370.983887,205.778702 372.775452,208.096878 370.744202,211.630112 
	C370.359467,212.299316 369.931824,213.428574 370.228058,213.928085 
	C372.654846,218.020706 370.114227,221.507202 369.000580,225.544159 
	C367.031769,226.584167 365.072418,227.911728 363.213379,227.783646 
	C359.787994,227.547684 356.421509,226.456543 353.030487,225.721771 
z"/>
<path fill="#DAF3F9" opacity="1.000000" stroke="none" 
	d="
M368.035095,203.083511 
	C366.521149,206.533615 365.007233,209.983719 363.439514,213.556381 
	C360.538483,210.202698 357.571899,206.773193 354.010315,203.087250 
	C352.508026,201.606934 351.600647,200.383102 350.693298,199.159271 
	C352.212097,199.609818 353.730896,200.060364 356.011414,200.736877 
	C355.709045,198.744934 355.783752,196.953827 355.153961,195.459671 
	C351.150726,185.962311 350.631561,176.394226 354.640076,166.845840 
	C356.654144,162.048370 359.191803,157.465683 361.622864,152.854507 
	C361.935242,152.261963 363.033295,152.083649 363.933655,151.984741 
	C361.232513,157.831711 357.772278,163.190125 355.631470,169.032028 
	C352.082550,178.716248 353.722778,188.312805 358.126831,197.487366 
	C359.757172,200.883698 361.560364,200.919861 364.065674,198.126221 
	C369.936981,191.579269 371.662476,183.610336 370.597656,175.440430 
	C369.601349,167.796387 366.932953,160.370285 364.906738,152.492340 
	C365.896240,153.291611 367.321289,154.273849 368.007538,155.629959 
	C372.688080,164.878799 372.126556,174.906860 371.924805,184.823547 
	C371.857666,188.124863 372.970978,189.481827 376.510284,189.367188 
	C374.198029,193.489548 371.598236,197.276398 368.803314,201.123215 
	C368.347656,201.374298 368.283203,201.617386 368.275757,202.190918 
	C368.102844,202.674072 368.068970,202.878784 368.035095,203.083511 
z"/>
<path fill="#4781BA" opacity="1.000000" stroke="none" 
	d="
M591.495422,291.434631 
	C585.552734,288.189636 584.363159,282.193542 583.530701,276.431244 
	C581.833679,264.684052 586.046265,254.474869 593.130371,244.148727 
	C594.876526,248.062103 596.275940,251.198395 597.259155,254.670502 
	C595.565491,255.245148 594.287964,255.484024 594.435425,255.456467 
	C593.395081,268.187653 592.445251,279.811157 591.495422,291.434631 
z"/>
<path fill="#2B8BB4" opacity="1.000000" stroke="none" 
	d="
M368.198975,203.380798 
	C368.068970,202.878784 368.102844,202.674072 368.415039,202.083099 
	C368.854889,201.514450 368.956573,201.303268 368.998474,201.063263 
	C371.598236,197.276398 374.198029,193.489548 376.948914,189.403671 
	C377.100006,189.104660 377.061371,189.090714 377.371948,188.997025 
	C378.476410,187.951080 379.270294,186.998825 380.064178,186.046570 
	C384.122101,185.096085 382.599640,188.450882 383.231934,191.005875 
	C383.304749,195.594101 383.373108,199.323196 383.441467,203.052277 
	C383.291504,203.789810 383.141571,204.527359 382.782227,205.861328 
	C382.435150,207.303207 382.297485,208.148666 382.159790,208.994125 
	C382.040039,209.420776 381.920288,209.847427 381.542542,210.781830 
	C381.166992,211.852524 381.049408,212.415497 380.931824,212.978455 
	C380.662537,213.477753 380.393250,213.977051 379.801086,214.892334 
	C379.309052,215.867996 379.139893,216.427643 378.970703,216.987305 
	C378.629456,217.392517 378.288208,217.797714 377.626343,218.653107 
	C375.893158,220.746552 374.480621,222.389832 373.068054,224.033112 
	C372.790283,224.208679 372.512512,224.384247 371.750092,224.771912 
	C370.528717,225.047714 369.792023,225.111404 369.055298,225.175110 
	C370.114227,221.507202 372.654846,218.020706 370.228058,213.928085 
	C369.931824,213.428574 370.359467,212.299316 370.744202,211.630112 
	C372.775452,208.096878 370.983887,205.778702 368.198975,203.380798 
z"/>
<path fill="#287DAB" opacity="1.000000" stroke="none" 
	d="
M368.131195,261.600922 
	C367.658936,261.553375 367.186646,261.505829 366.386414,261.089569 
	C366.018188,260.484711 365.999939,260.246857 366.403259,260.006927 
	C373.048157,259.042847 374.762848,254.987915 371.957153,247.583939 
	C372.136444,246.785568 372.267365,246.335495 372.594238,245.601532 
	C372.802673,244.384521 372.815155,243.451431 372.771851,242.142548 
	C374.382416,237.487808 376.048828,233.208878 378.035065,228.779160 
	C378.535004,227.968094 378.715149,227.307831 378.927124,226.452332 
	C378.958984,226.257111 379.264832,226.006180 379.638916,226.003479 
	C384.047516,226.259720 385.807709,227.776703 384.039520,232.108902 
	C383.006104,234.640976 381.854767,237.684631 382.371765,240.160904 
	C383.183380,244.048477 382.561401,246.762238 377.821899,249.404480 
	C380.166840,250.575073 381.766968,251.373840 383.712646,252.345093 
	C380.291656,256.314301 377.693848,259.328430 375.096008,262.342560 
	C373.630859,262.373291 372.165741,262.403992 370.284485,262.058899 
	C369.289307,261.655670 368.710266,261.628296 368.131195,261.600922 
z"/>
<path fill="#4F8BC5" opacity="1.000000" stroke="none" 
	d="
M632.696899,235.849075 
	C639.029297,232.091873 645.361694,228.334686 651.694092,224.577515 
	C652.077698,224.990784 652.461243,225.404053 652.844849,225.817322 
	C649.761719,238.434845 643.713989,249.220337 632.372009,256.607910 
	C635.437378,251.772766 635.171448,246.478668 634.928162,241.318909 
	C634.840698,239.464706 633.477661,237.670624 632.696899,235.849075 
z"/>
<path fill="#2E6FA0" opacity="1.000000" stroke="none" 
	d="
M375.465576,262.366974 
	C377.693848,259.328430 380.291656,256.314301 383.712646,252.345093 
	C381.766968,251.373840 380.166840,250.575073 377.821899,249.404480 
	C382.561401,246.762238 383.183380,244.048477 382.371765,240.160904 
	C381.854767,237.684631 383.006104,234.640976 384.039520,232.108902 
	C385.807709,227.776703 384.047516,226.259720 379.645020,225.716843 
	C379.319458,225.055695 379.361877,224.678482 379.404297,224.301285 
	C379.404266,224.301285 379.308380,224.125488 379.583923,224.102142 
	C379.991699,223.727509 380.123901,223.376190 380.256104,223.024887 
	C380.256104,223.024887 380.399475,222.877853 380.679779,222.605530 
	C381.322693,221.565308 381.685333,220.797424 382.047974,220.029541 
	C382.047974,220.029541 381.999176,220.001785 382.313232,219.922119 
	C383.341003,218.857956 384.054749,217.873474 384.768494,216.888977 
	C384.768463,216.888962 384.910828,216.889313 385.159302,216.740234 
	C385.564789,216.268997 385.721832,215.946838 385.878845,215.624664 
	C386.694550,216.499588 387.976349,217.247177 388.255402,218.268707 
	C391.931854,231.726196 392.724518,244.909363 383.072693,256.499786 
	C381.119049,258.845795 378.270905,260.446899 375.465576,262.366974 
z"/>
<path fill="#5599D1" opacity="1.000000" stroke="none" 
	d="
M611.169678,228.578857 
	C607.202759,228.801682 606.254272,231.484940 606.026428,234.739136 
	C605.681091,239.670349 605.163269,244.607712 605.196716,249.539215 
	C605.212524,251.875153 606.335083,254.203598 606.929138,256.971497 
	C599.264221,250.853104 597.671021,241.890350 597.920166,232.661591 
	C598.075867,226.895370 599.808289,221.171707 600.833191,215.428940 
	C601.501465,215.303940 602.169739,215.178940 602.838013,215.053940 
	C605.591614,219.444244 608.345215,223.834534 611.169678,228.578857 
z"/>
<path fill="#285C97" opacity="1.000000" stroke="none" 
	d="
M397.818909,305.784973 
	C398.298492,305.728821 398.778076,305.672668 399.614868,305.679291 
	C399.972107,305.742096 399.891907,305.953064 399.878326,306.449829 
	C399.247650,312.315735 398.630524,317.684906 398.013428,323.054077 
	C388.870575,320.775391 381.263184,315.763367 373.968201,310.195129 
	C374.006317,309.676636 374.044434,309.158142 374.082520,308.639648 
	C381.500977,307.692474 388.919464,306.745300 396.948242,305.866760 
	C397.558533,305.935425 397.818909,305.785004 397.818909,305.784973 
z"/>
<path fill="#4781BA" opacity="1.000000" stroke="none" 
	d="
M649.877014,190.946823 
	C652.959412,189.434326 656.041809,187.921844 659.169922,186.386917 
	C661.549438,196.129379 650.254761,216.553818 638.350647,223.513763 
	C638.007751,222.822723 638.001282,222.409119 638.299316,221.851715 
	C647.216858,218.832657 645.688110,209.238174 650.174133,203.847717 
	C648.569031,201.788666 646.876160,199.617111 645.200623,197.467789 
	C643.776794,197.608780 642.321594,197.752884 641.003662,197.617401 
	C641.863159,196.606689 642.585205,195.875549 643.307312,195.144409 
	C643.775391,194.884201 644.243408,194.623962 645.145264,194.123550 
	C646.014465,193.569763 646.449829,193.256149 646.885254,192.942551 
	C646.885254,192.942551 646.967468,192.947159 647.265320,192.868500 
	C648.334473,192.175491 649.105713,191.561157 649.877014,190.946823 
z"/>
<path fill="#4F8BC5" opacity="1.000000" stroke="none" 
	d="
M591.514465,291.429932 
	C592.445251,279.811157 593.395081,268.187653 594.435425,255.456467 
	C594.287964,255.484024 595.565491,255.245148 597.220459,255.025818 
	C600.894348,262.539795 601.469055,270.311340 599.825195,278.701447 
	C599.448242,279.560211 599.210876,280.012085 598.642761,280.907257 
	C597.541687,283.042572 595.976318,284.838287 596.180420,286.403290 
	C596.518555,288.995422 597.995972,291.438995 598.993408,293.945190 
	C598.993469,293.945160 598.981750,294.345642 599.013916,294.542969 
	C597.928223,294.586334 596.810486,294.432343 595.223755,294.104614 
	C594.754761,293.930847 594.441956,293.898132 594.441956,293.898132 
	C594.441956,293.898132 594.076599,293.702789 593.975708,293.132202 
	C593.101196,292.193176 592.327637,291.824768 591.554077,291.456390 
	C591.554077,291.456390 591.533508,291.425232 591.514465,291.429932 
z"/>
<path fill="#31A0BF" opacity="1.000000" stroke="none" 
	d="
M365.614380,270.898926 
	C365.614380,270.898926 365.702850,270.672485 365.841003,271.132050 
	C367.370453,277.351288 367.516571,282.788788 362.050934,286.774353 
	C355.004059,282.095337 350.742401,275.282166 346.237305,266.663879 
	C351.825439,267.580566 356.100098,268.281799 360.836365,269.551971 
	C362.736786,270.380249 364.175598,270.639587 365.614380,270.898926 
z"/>
<path fill="#2B8BB4" opacity="1.000000" stroke="none" 
	d="
M350.442352,199.055481 
	C351.600647,200.383102 352.508026,201.606934 353.682678,203.033417 
	C349.016174,209.598648 348.353210,216.385315 351.567810,223.868469 
	C348.806702,222.078629 346.406494,220.013153 343.956360,217.621277 
	C343.221100,216.898636 342.535767,216.502380 341.847961,216.128082 
	C341.845490,216.150055 341.809418,216.177124 341.836365,215.800415 
	C341.581726,213.950546 341.300110,212.477386 341.294617,210.764801 
	C342.665710,205.668472 343.760712,200.811569 344.901733,195.866592 
	C344.947754,195.778519 345.058990,195.613785 345.038452,195.428452 
	C345.017883,195.243118 344.947937,194.876785 344.947937,194.876785 
	C344.947937,194.876785 345.239990,195.131058 345.590179,195.445251 
	C346.973328,196.441589 348.006256,197.123734 349.039215,197.805862 
	C349.423279,198.187805 349.807343,198.569748 350.442352,199.055481 
z"/>
<path fill="#5599D1" opacity="1.000000" stroke="none" 
	d="
M632.360779,235.886230 
	C633.477661,237.670624 634.840698,239.464706 634.928162,241.318909 
	C635.171448,246.478668 635.437378,251.772766 632.032227,256.654297 
	C631.991577,257.011780 631.768921,257.201508 631.234375,257.154114 
	C630.155518,257.575775 629.611206,258.044830 629.066833,258.513916 
	C629.029114,258.780884 628.885437,258.965302 628.207520,259.113159 
	C627.446228,259.260529 627.199951,259.465912 627.040405,259.775269 
	C624.913147,260.459259 622.785889,261.143250 620.281433,261.798279 
	C620.163635,261.179962 620.296448,260.189362 620.701538,260.061462 
	C626.652344,258.182617 629.244385,249.163116 624.997986,244.758072 
	C624.582581,244.327164 623.819153,244.231750 622.820679,243.949097 
	C625.624268,241.252853 628.824463,238.588120 632.360779,235.886230 
z"/>
<path fill="#60A3D9" opacity="1.000000" stroke="none" 
	d="
M597.104004,306.473572 
	C602.996521,307.148407 608.889038,307.823242 614.781494,308.498047 
	C614.919617,309.231903 615.057800,309.965759 615.195984,310.699585 
	C609.740234,313.831512 604.284485,316.963440 598.213013,319.805847 
	C594.213013,317.094452 593.925964,312.033905 596.861511,308.643524 
	C597.254089,308.190125 597.038147,307.209839 597.104004,306.473572 
z"/>
<path fill="#4781BA" opacity="1.000000" stroke="none" 
	d="
M577.624146,324.845032 
	C577.488953,320.814850 577.519226,316.900146 577.907532,313.021210 
	C578.399963,308.101166 581.447876,306.324738 586.582031,307.435150 
	C586.824280,309.965881 586.531616,312.049194 586.479980,314.138489 
	C586.393799,317.625153 586.259277,321.197235 590.083557,323.147461 
	C589.462952,323.268402 588.842407,323.389374 587.583008,323.388794 
	C586.624878,323.577332 586.305603,323.887390 585.986328,324.197449 
	C583.307068,324.457062 580.627869,324.716705 577.624146,324.845032 
z"/>
<path fill="#2B8BB4" opacity="1.000000" stroke="none" 
	d="
M362.229553,287.064148 
	C367.516571,282.788788 367.370453,277.351288 365.961395,271.148987 
	C367.808105,271.106079 369.672607,271.505737 371.845642,272.442932 
	C372.908630,273.119781 373.663086,273.259125 374.417511,273.398499 
	C374.417511,273.398499 374.493835,273.428375 374.348419,273.878113 
	C373.175507,280.197021 372.148010,286.066193 371.022766,292.009766 
	C370.925079,292.084198 370.703979,292.191193 370.703979,292.191193 
	C367.938721,290.578766 365.173462,288.966339 362.229553,287.064148 
z"/>
<path fill="#5599D1" opacity="1.000000" stroke="none" 
	d="
M637.994751,221.995499 
	C638.001282,222.409119 638.007751,222.822723 638.011169,223.546356 
	C638.008057,223.856369 637.788025,224.124084 637.311157,224.178925 
	C636.556030,224.513977 636.277832,224.794159 635.999634,225.074371 
	C634.229919,225.699051 632.460083,226.323746 630.330322,226.917511 
	C630.675537,221.826920 631.380798,216.767242 632.203064,210.868103 
	C630.051453,211.718765 628.761047,212.228943 627.181519,212.493195 
	C627.592285,210.830460 628.292175,209.413681 628.992065,207.996918 
	C628.992065,207.996902 629.000000,208.000000 629.227051,207.904572 
	C629.749634,207.609940 629.903076,207.332230 629.914490,206.976044 
	C630.517578,206.458221 631.120605,205.940384 632.115967,205.041534 
	C633.304443,204.050293 634.100586,203.440063 635.114929,203.147827 
	C635.892578,204.562836 636.837036,205.623322 636.945251,206.763184 
	C637.425903,211.828201 637.666992,216.915970 637.994751,221.995499 
z"/>
<path fill="#3A679F" opacity="1.000000" stroke="none" 
	d="
M341.018524,211.004227 
	C341.300110,212.477386 341.581726,213.950546 341.571594,215.657623 
	C340.525940,215.248245 339.772034,214.604935 339.018097,213.961624 
	C335.066284,205.221512 331.114441,196.481400 327.162598,187.741287 
	C327.809937,187.159561 328.457275,186.577835 329.104645,185.996109 
	C333.779175,188.614410 338.453735,191.232727 343.473419,194.206955 
	C343.818542,194.562866 343.911591,195.033417 343.552490,195.017181 
	C340.212036,195.561676 337.230682,196.122406 332.683685,196.977600 
	C335.979095,202.523438 338.498810,206.763840 341.018524,211.004227 
z"/>
<path fill="#31A0BF" opacity="1.000000" stroke="none" 
	d="
M366.003662,260.007324 
	C365.999939,260.246857 366.018188,260.484711 366.079285,260.898193 
	C356.035553,259.278870 349.545807,252.700577 344.360199,244.091888 
	C343.512878,238.822632 343.434174,234.231110 346.050262,229.932495 
	C346.409668,229.985687 346.769104,230.038895 347.578308,230.415726 
	C349.014404,231.170624 350.000732,231.601898 350.987030,232.033173 
	C350.987030,232.033173 351.249146,232.233093 351.604614,232.519806 
	C353.300537,233.545761 354.640991,234.284988 355.981476,235.024231 
	C355.981476,235.024231 356.000000,235.000000 356.090912,235.271027 
	C356.461243,236.023178 356.740631,236.504318 356.638702,236.985764 
	C354.412231,236.433701 352.567108,235.881302 350.533478,235.272476 
	C349.420105,240.527527 345.668213,245.854218 351.067596,250.366653 
	C355.020325,253.670074 359.660248,256.151184 364.162781,259.244324 
	C364.889008,259.662323 365.446350,259.834808 366.003662,260.007324 
z"/>
<path fill="#4F8BC5" opacity="1.000000" stroke="none" 
	d="
M590.436401,323.172852 
	C586.259277,321.197235 586.393799,317.625153 586.479980,314.138489 
	C586.531616,312.049194 586.824280,309.965881 587.005493,307.444031 
	C587.846130,306.872040 588.689819,306.735870 589.769165,306.379333 
	C590.004883,306.158997 589.950317,306.062805 590.396240,306.060913 
	C592.434265,306.091644 594.026367,306.124268 595.618408,306.156921 
	C595.873108,306.174194 596.127747,306.191467 596.743225,306.341187 
	C597.038147,307.209839 597.254089,308.190125 596.861511,308.643524 
	C593.925964,312.033905 594.213013,317.094452 597.844421,319.815247 
	C597.576660,320.346985 597.061707,320.579803 595.985840,320.907440 
	C594.954102,321.308746 594.483276,321.615265 594.012390,321.921814 
	C592.938049,322.347321 591.863647,322.772797 590.436401,323.172852 
z"/>
<path fill="#2E6FA0" opacity="1.000000" stroke="none" 
	d="
M388.667480,279.123077 
	C389.223389,279.400970 389.418182,279.797943 389.612976,280.194885 
	C382.345703,280.275146 385.620331,285.747650 385.082489,289.207428 
	C384.943970,290.098419 385.449341,291.089508 385.652283,292.004791 
	C384.475128,292.912994 383.357391,293.775360 382.158752,294.936584 
	C378.444580,294.401947 374.811279,293.568420 370.940979,292.463074 
	C370.703979,292.191193 370.925079,292.084198 371.433014,292.032043 
	C374.726044,292.288849 377.511169,292.597748 380.453796,292.924133 
	C379.877655,290.881561 378.828857,289.279358 379.232971,288.244446 
	C381.445953,282.576935 379.650574,278.007355 375.953949,273.780701 
	C380.071411,275.601196 384.188873,277.421661 388.667480,279.123077 
z"/>
<path fill="#4F8BC5" opacity="1.000000" stroke="none" 
	d="
M624.997009,269.995667 
	C630.405090,268.921173 635.813171,267.846680 642.723328,266.473755 
	C638.706299,274.429382 634.532104,280.293854 628.397949,284.674988 
	C628.950500,280.959442 630.035767,277.569855 630.520142,274.096497 
	C630.638733,273.246307 628.935120,271.887512 627.804810,271.193054 
	C626.783142,270.565369 625.400269,270.525818 624.176636,270.226898 
	C624.176636,270.226898 624.131958,270.118225 624.379456,270.103485 
	C624.626953,270.088745 624.997009,269.995667 624.997009,269.995667 
z"/>
<path fill="#E6F6FC" opacity="1.000000" stroke="none" 
	d="
M628.628540,207.989532 
	C628.292175,209.413681 627.592285,210.830460 626.832031,212.596100 
	C625.870239,212.600464 624.257812,212.380569 624.172363,211.893097 
	C622.453003,202.081711 616.407166,194.830612 609.981323,187.394028 
	C612.721558,189.047394 615.612122,191.004364 618.653931,193.063766 
	C618.297668,190.720795 617.895630,188.076553 617.778015,185.205109 
	C619.954102,189.086121 621.637695,193.310791 623.841370,197.244125 
	C624.701172,198.778870 626.731018,199.658066 628.571777,200.834778 
	C627.175110,201.555481 625.434570,202.277237 622.888489,203.333038 
	C624.659180,204.864182 626.462097,206.423172 628.628540,207.989532 
z"/>
<path fill="#287DAB" opacity="1.000000" stroke="none" 
	d="
M375.750305,273.618713 
	C379.650574,278.007355 381.445953,282.576935 379.232971,288.244446 
	C378.828857,289.279358 379.877655,290.881561 380.453796,292.924133 
	C377.511169,292.597748 374.726044,292.288849 371.530701,291.957642 
	C372.148010,286.066193 373.175507,280.197021 374.381500,273.853943 
	C374.888885,273.405609 375.217804,273.431183 375.750305,273.618713 
z"/>
<path fill="#5599D1" opacity="1.000000" stroke="none" 
	d="
M623.927124,270.186951 
	C625.400269,270.525818 626.783142,270.565369 627.804810,271.193054 
	C628.935120,271.887512 630.638733,273.246307 630.520142,274.096497 
	C630.035767,277.569855 628.950500,280.959442 628.059387,284.755676 
	C628.009766,285.468719 627.852905,285.723206 627.009155,285.980286 
	C625.989319,286.465790 625.522095,286.865967 625.054871,287.266144 
	C623.302002,288.635712 621.549194,290.005280 619.445251,291.451660 
	C622.700745,285.367035 623.601624,278.678833 622.920898,271.204712 
	C623.149353,270.528809 623.413513,270.337891 623.927124,270.186951 
z"/>
<path fill="#2B8BB4" opacity="1.000000" stroke="none" 
	d="
M366.403259,260.006927 
	C365.446350,259.834808 364.889008,259.662323 364.396606,258.937775 
	C367.030457,254.310196 366.519440,248.538223 363.342041,243.881561 
	C362.381195,242.473419 361.781952,240.818573 361.250488,239.237747 
	C361.483856,239.198761 361.942810,239.083389 361.942810,239.083389 
	C361.942810,239.083389 362.005280,239.022446 362.055511,239.282257 
	C362.408386,239.683472 362.710999,239.824875 363.013641,239.966263 
	C363.013641,239.966263 363.185364,240.212112 363.487549,240.523132 
	C364.502136,241.276596 365.214508,241.719025 365.926880,242.161469 
	C366.013367,242.474304 366.192535,242.719345 366.814941,243.269318 
	C368.746521,245.072098 370.327637,246.502167 371.908752,247.932236 
	C374.762848,254.987915 373.048157,259.042847 366.403259,260.006927 
z"/>
<path fill="#406081" opacity="1.000000" stroke="none" 
	d="
M680.604126,443.514282 
	C679.658569,441.699982 678.815979,439.451813 677.933044,437.096008 
	C675.288330,439.980316 675.113831,492.340912 677.984558,496.327728 
	C678.687500,494.047363 679.265259,492.173248 680.171997,490.175537 
	C680.500977,492.514618 680.500977,494.977325 680.500977,497.733215 
	C678.767639,497.733215 677.061951,497.733215 674.971130,497.733215 
	C674.971130,480.367065 674.971008,463.144653 674.971252,445.922241 
	C674.971252,443.766388 675.079834,441.604156 674.950928,439.456085 
	C674.714783,435.519867 676.603149,434.407166 680.707153,435.391693 
	C680.707153,437.879578 680.707153,440.479980 680.604126,443.514282 
z"/>
<path fill="#4781BA" opacity="1.000000" stroke="none" 
	d="
M345.908020,229.740433 
	C343.434174,234.231110 343.512878,238.822632 344.302368,243.753296 
	C341.465698,238.745148 338.832458,233.535324 336.413422,228.227875 
	C336.083588,227.504196 336.823700,226.292877 337.556274,225.435303 
	C338.360779,225.681671 338.677490,225.800079 338.994171,225.918488 
	C339.706543,226.281036 340.418884,226.643585 341.615356,227.335419 
	C342.709656,227.827454 343.319824,227.990219 343.930023,228.152985 
	C343.930023,228.152985 343.951935,228.061234 344.014587,228.321579 
	C344.389923,228.707092 344.702606,228.832275 345.015289,228.957458 
	C345.245270,229.180084 345.495422,229.377060 345.908020,229.740433 
z"/>
<path fill="#2D9EBF" opacity="1.000000" stroke="none" 
	d="
M398.294037,323.213867 
	C398.630524,317.684906 399.247650,312.315735 399.925964,306.552124 
	C401.277313,306.859924 403.730865,307.675598 403.675201,308.246552 
	C403.190948,313.211700 402.256683,318.132935 401.279480,323.383301 
	C400.260040,323.590851 399.417328,323.482269 398.294037,323.213867 
z"/>
<path fill="#406081" opacity="1.000000" stroke="none" 
	d="
M796.030396,443.511139 
	C796.401001,444.790100 796.962891,446.528076 796.971558,448.268829 
	C797.043213,462.751709 797.044006,477.235199 796.984802,491.718201 
	C796.973877,494.397675 797.047729,496.797760 800.703430,497.500854 
	C799.512817,497.848022 798.046875,497.962280 795.965332,498.124542 
	C795.965332,479.891205 795.965332,461.931335 796.030396,443.511139 
z"/>
<path fill="#DAF3F9" opacity="1.000000" stroke="none" 
	d="
M371.957153,247.583939 
	C370.327637,246.502167 368.746521,245.072098 367.034241,243.344086 
	C371.432465,242.422089 371.393036,238.219650 372.955078,235.286804 
	C374.890198,231.653427 376.765076,227.987946 379.035156,224.318817 
	C379.361877,224.678482 379.319458,225.055695 379.270935,225.719543 
	C379.264832,226.006180 378.958984,226.257111 378.660095,226.655853 
	C378.145844,227.679703 377.930542,228.304825 377.715240,228.929947 
	C376.048828,233.208878 374.382416,237.487808 372.554993,242.434601 
	C372.395416,244.030121 372.396820,244.957764 372.398254,245.885422 
	C372.267365,246.335495 372.136444,246.785568 371.957153,247.583939 
z"/>
<path fill="#406081" opacity="1.000000" stroke="none" 
	d="
M751.155396,493.612549 
	C750.968994,476.445862 751.010864,458.934143 751.075745,440.911072 
	C751.408020,441.459534 751.982849,442.518341 751.986694,443.579285 
	C752.043091,459.011292 752.036438,474.443573 751.993835,489.875702 
	C751.990723,491.006836 751.596252,492.136932 751.155396,493.612549 
z"/>
<path fill="#406081" opacity="1.000000" stroke="none" 
	d="
M438.139252,441.507324 
	C438.478180,441.490265 438.892303,441.925598 438.891052,442.359772 
	C438.844727,458.359100 438.759918,474.358307 438.408325,490.669250 
	C438.097778,474.640350 438.059265,458.299774 438.139252,441.507324 
z"/>
<path fill="#406081" opacity="1.000000" stroke="none" 
	d="
M142.129669,441.502991 
	C142.471024,441.483337 142.891861,441.916870 142.890610,442.349121 
	C142.844360,458.349335 142.759033,474.349426 142.408249,490.660950 
	C142.095749,474.633423 142.054031,458.294495 142.129669,441.502991 
z"/>
<path fill="#DAF3F9" opacity="1.000000" stroke="none" 
	d="
M369.000580,225.544159 
	C369.792023,225.111404 370.528717,225.047714 371.635315,224.995178 
	C369.703644,229.950867 362.228485,232.171692 357.754242,229.254059 
	C356.270599,228.286591 354.757141,227.364853 353.143890,226.071991 
	C356.421509,226.456543 359.787994,227.547684 363.213379,227.783646 
	C365.072418,227.911728 367.031769,226.584167 369.000580,225.544159 
z"/>
<path fill="#406081" opacity="1.000000" stroke="none" 
	d="
M199.579712,492.863708 
	C199.610031,495.835785 200.853943,497.250824 204.371262,497.065033 
	C209.594772,496.789062 214.844009,497.000336 220.552216,497.008484 
	C213.531219,497.506958 206.040283,498.001190 197.738846,498.548889 
	C198.434052,496.159210 198.871826,494.654419 199.579712,492.863708 
z"/>
<path fill="#DAF3F9" opacity="1.000000" stroke="none" 
	d="
M344.006287,217.947678 
	C346.406494,220.013153 348.806702,222.078629 351.542297,224.259995 
	C351.944855,224.707581 352.106171,224.984421 352.483459,225.418045 
	C347.044922,226.536026 344.878387,222.147552 341.988220,218.443710 
	C341.959259,218.044540 342.093384,217.905731 342.411041,217.943237 
	C343.154572,217.969711 343.580414,217.958694 344.006287,217.947678 
z"/>
<path fill="#DAF3F9" opacity="1.000000" stroke="none" 
	d="
M383.789825,202.906372 
	C383.373108,199.323196 383.304749,195.594101 383.325806,191.408112 
	C383.656219,194.887634 383.897217,198.824051 383.789825,202.906372 
z"/>
<path fill="#406081" opacity="1.000000" stroke="none" 
	d="
M222.156647,495.483765 
	C220.654907,494.464050 219.495636,492.347565 218.055847,492.135468 
	C214.905350,491.671387 211.612488,492.173706 208.218201,492.042358 
	C212.981232,491.803436 217.903824,491.803436 223.372238,491.803436 
	C223.028778,492.987091 222.700333,494.118927 222.156647,495.483765 
z"/>
<path fill="#E6F6FC" opacity="1.000000" stroke="none" 
	d="
M630.871887,160.937714 
	C628.849243,158.507401 626.882690,155.663605 624.814819,152.488373 
	C629.301880,153.076813 630.603882,156.437378 630.871887,160.937714 
z"/>
<path fill="#E6F6FC" opacity="1.000000" stroke="none" 
	d="
M635.412842,182.662933 
	C634.519897,178.228683 633.889221,173.484024 633.302246,168.349686 
	C634.231079,170.340225 635.486328,172.658997 635.894775,175.118378 
	C636.282532,177.453217 635.783997,179.935211 635.412842,182.662933 
z"/>
<path fill="#E6F6FC" opacity="1.000000" stroke="none" 
	d="
M642.897461,195.103424 
	C642.585205,195.875549 641.863159,196.606689 641.031006,197.646500 
	C640.920898,197.955170 640.973938,197.897415 640.681274,197.967133 
	C640.125854,198.333817 639.863037,198.630814 639.318970,198.957504 
	C638.380920,199.347824 637.724121,199.708450 637.011841,200.010071 
	C636.956421,199.951065 636.849243,199.829697 636.849243,199.829697 
	C636.602295,195.725693 639.536804,195.384476 642.897461,195.103424 
z"/>
<path fill="#E6F6FC" opacity="1.000000" stroke="none" 
	d="
M622.657104,153.066452 
	C622.239685,155.586319 621.448914,158.159836 620.390991,160.984665 
	C620.843811,158.530670 621.563782,155.825394 622.657104,153.066452 
z"/>
<path fill="#DAF3F9" opacity="1.000000" stroke="none" 
	d="
M361.930359,238.715591 
	C361.942810,239.083389 361.483856,239.198761 361.123352,239.078217 
	C360.762817,238.957672 360.365997,238.866318 360.164917,238.596771 
	C358.980286,237.878448 357.996704,237.429672 357.006897,236.988800 
	C357.000671,236.996719 357.020050,236.985443 357.020050,236.985443 
	C356.740631,236.504318 356.461243,236.023178 356.079712,235.281494 
	C357.957703,236.129898 359.937836,237.238846 361.930359,238.715591 
z"/>
<path fill="#E6F6FC" opacity="1.000000" stroke="none" 
	d="
M619.526245,163.265259 
	C619.348999,165.512024 618.926331,167.985611 618.265930,170.735413 
	C618.445740,168.505127 618.863281,165.998611 619.526245,163.265259 
z"/>
<path fill="#DAF3F9" opacity="1.000000" stroke="none" 
	d="
M373.451660,224.028809 
	C374.480621,222.389832 375.893158,220.746552 377.581299,218.921219 
	C378.536926,222.038376 377.074066,223.707077 373.451660,224.028809 
z"/>
<path fill="#E6F6FC" opacity="1.000000" stroke="none" 
	d="
M634.896729,202.829834 
	C634.100586,203.440063 633.304443,204.050293 632.223206,204.758911 
	C632.116394,202.187469 632.689758,199.853500 636.482178,199.887115 
	C636.849243,199.829697 636.956421,199.951065 636.888855,200.278687 
	C636.179749,201.347473 635.538208,202.088654 634.896729,202.829834 
z"/>
<path fill="#DAF3F9" opacity="1.000000" stroke="none" 
	d="
M338.892792,214.256958 
	C339.772034,214.604935 340.525940,215.248245 341.544647,216.034332 
	C341.809418,216.177124 341.845490,216.150055 341.848969,216.431519 
	C341.932739,217.110580 342.013062,217.508148 342.093384,217.905731 
	C342.093384,217.905731 341.959259,218.044540 341.892273,218.116241 
	C340.806000,216.976044 339.786743,215.764160 338.892792,214.256958 
z"/>
<path fill="#DAF3F9" opacity="1.000000" stroke="none" 
	d="
M355.950165,234.647675 
	C354.640991,234.284988 353.300537,233.545761 351.769287,232.526703 
	C353.025269,232.921616 354.472076,233.596359 355.950165,234.647675 
z"/>
<path fill="#DAF3F9" opacity="1.000000" stroke="none" 
	d="
M349.021362,197.429886 
	C348.006256,197.123734 346.973328,196.441589 345.779877,195.483978 
	C346.747437,195.823639 347.875488,196.438766 349.021362,197.429886 
z"/>
<path fill="#DAF3F9" opacity="1.000000" stroke="none" 
	d="
M384.412598,216.921753 
	C384.054749,217.873474 383.341003,218.857956 382.330139,219.944595 
	C382.707581,219.016006 383.382141,217.985275 384.412598,216.921753 
z"/>
<path fill="#60A3D9" opacity="1.000000" stroke="none" 
	d="
M595.418945,305.903473 
	C594.026367,306.124268 592.434265,306.091644 590.440430,306.027649 
	C591.765625,305.880890 593.492493,305.765472 595.418945,305.903473 
z"/>
<path fill="#2E6FA0" opacity="1.000000" stroke="none" 
	d="
M387.274353,295.309937 
	C387.829803,294.904144 388.680267,294.609528 389.707520,294.513123 
	C389.112671,294.947906 388.341003,295.184509 387.274353,295.309937 
z"/>
<path fill="#E6F6FC" opacity="1.000000" stroke="none" 
	d="
M634.505127,188.966187 
	C634.311462,188.172684 634.425049,187.320953 634.768860,186.235245 
	C634.936890,186.970154 634.874634,187.939072 634.505127,188.966187 
z"/>
<path fill="#2B8BB4" opacity="1.000000" stroke="none" 
	d="
M365.452606,270.602020 
	C364.175598,270.639587 362.736786,270.380249 361.179443,269.775848 
	C361.563660,269.461884 362.066376,269.492981 363.031799,269.738953 
	C363.494446,269.953857 363.748352,270.003845 363.748352,270.003845 
	C363.748352,270.003845 364.006958,269.993896 364.006958,269.993896 
	C364.434906,270.097626 364.862885,270.201385 365.452606,270.602020 
z"/>
<path fill="#DAF3F9" opacity="1.000000" stroke="none" 
	d="
M379.684387,186.031250 
	C379.270294,186.998825 378.476410,187.951080 377.383972,189.003189 
	C377.825165,188.074005 378.564880,187.044968 379.684387,186.031250 
z"/>
<path fill="#DAF3F9" opacity="1.000000" stroke="none" 
	d="
M350.931122,231.664658 
	C350.000732,231.601898 349.014404,231.170624 347.850220,230.457489 
	C348.739960,230.549118 349.807587,230.922638 350.931122,231.664658 
z"/>
<path fill="#E6F6FC" opacity="1.000000" stroke="none" 
	d="
M649.539795,190.953857 
	C649.105713,191.561157 648.334473,192.175491 647.251465,192.829712 
	C647.693970,192.233353 648.448242,191.597122 649.539795,190.953857 
z"/>
<path fill="#DAF3F9" opacity="1.000000" stroke="none" 
	d="
M382.417480,208.858673 
	C382.297485,208.148666 382.435150,207.303207 382.816528,206.238190 
	C382.931824,206.920181 382.803467,207.821701 382.417480,208.858673 
z"/>
<path fill="#DAF3F9" opacity="1.000000" stroke="none" 
	d="
M381.242004,212.956726 
	C381.049408,212.415497 381.166992,211.852524 381.522461,211.114441 
	C381.690979,211.604553 381.621582,212.269775 381.242004,212.956726 
z"/>
<path fill="#DAF3F9" opacity="1.000000" stroke="none" 
	d="
M365.899780,241.786514 
	C365.214508,241.719025 364.502136,241.276596 363.635620,240.546860 
	C364.278564,240.643570 365.075653,241.027573 365.899780,241.786514 
z"/>
<path fill="#E6F6FC" opacity="1.000000" stroke="none" 
	d="
M617.666504,173.221222 
	C617.940186,174.071487 617.967957,175.132385 617.903015,176.581223 
	C617.680359,175.790054 617.550415,174.610977 617.666504,173.221222 
z"/>
<path fill="#4781BA" opacity="1.000000" stroke="none" 
	d="
M591.533447,291.794983 
	C592.327637,291.824768 593.101196,292.193176 593.887024,292.944946 
	C593.103821,292.930084 592.308289,292.531830 591.533447,291.794983 
z"/>
<path fill="#31A0BF" opacity="1.000000" stroke="none" 
	d="
M368.289307,261.843140 
	C368.710266,261.628296 369.289307,261.655670 369.957458,261.872498 
	C369.513489,262.069733 368.980438,262.077545 368.289307,261.843140 
z"/>
<path fill="#DAF3F9" opacity="1.000000" stroke="none" 
	d="
M381.671265,220.087234 
	C381.685333,220.797424 381.322693,221.565308 380.680206,222.502853 
	C380.698425,221.829987 380.996490,220.987457 381.671265,220.087234 
z"/>
<path fill="#287DAB" opacity="1.000000" stroke="none" 
	d="
M374.310516,273.127502 
	C373.663086,273.259125 372.908630,273.119781 372.042053,272.668274 
	C372.687775,272.522949 373.445648,272.689758 374.310516,273.127502 
z"/>
<path fill="#60A3D9" opacity="1.000000" stroke="none" 
	d="
M594.263123,321.967255 
	C594.483276,321.615265 594.954102,321.308746 595.720825,321.004150 
	C595.515747,321.341614 595.014832,321.677155 594.263123,321.967255 
z"/>
<path fill="#E6F6FC" opacity="1.000000" stroke="none" 
	d="
M617.610229,181.180008 
	C617.890930,181.457443 617.973572,181.895340 618.001099,182.665344 
	C617.768127,182.445114 617.590149,181.892792 617.610229,181.180008 
z"/>
<path fill="#DAF3F9" opacity="1.000000" stroke="none" 
	d="
M343.773132,227.855927 
	C343.319824,227.990219 342.709656,227.827454 341.909363,227.404129 
	C342.351624,227.281982 342.983948,227.420410 343.773132,227.855927 
z"/>
<path fill="#E6F6FC" opacity="1.000000" stroke="none" 
	d="
M646.603760,192.965042 
	C646.449829,193.256149 646.014465,193.569763 645.277649,193.883606 
	C645.424927,193.585083 645.873596,193.286316 646.603760,192.965042 
z"/>
<path fill="#4F8BC5" opacity="1.000000" stroke="none" 
	d="
M629.423584,258.443787 
	C629.611206,258.044830 630.155518,257.575775 631.097778,257.101990 
	C630.923828,257.522705 630.352112,257.948181 629.423584,258.443787 
z"/>
<path fill="#4F8BC5" opacity="1.000000" stroke="none" 
	d="
M625.379272,287.218384 
	C625.522095,286.865967 625.989319,286.465790 626.787537,286.048981 
	C626.646912,286.411774 626.175354,286.791168 625.379272,287.218384 
z"/>
<path fill="#DAF3F9" opacity="1.000000" stroke="none" 
	d="
M379.230011,216.838562 
	C379.139893,216.427643 379.309052,215.867996 379.743896,215.171310 
	C379.836151,215.586136 379.662750,216.137985 379.230011,216.838562 
z"/>
<path fill="#DAF3F9" opacity="1.000000" stroke="none" 
	d="
M385.708008,215.529968 
	C385.721832,215.946838 385.564789,216.268997 385.143372,216.670837 
	C385.098389,216.312119 385.317780,215.873688 385.708008,215.529968 
z"/>
<path fill="#E6F6FC" opacity="1.000000" stroke="none" 
	d="
M632.431885,194.796387 
	C632.327148,194.435150 632.429382,193.896667 632.772461,193.205963 
	C632.888550,193.575546 632.763733,194.097351 632.431885,194.796387 
z"/>
<path fill="#60A6DC" opacity="1.000000" stroke="none" 
	d="
M624.918762,269.857422 
	C624.997009,269.995667 624.626953,270.088745 624.438110,270.107483 
	C624.249207,270.126251 624.402954,269.725952 624.402954,269.725952 
	C624.402954,269.725952 624.840515,269.719208 624.918762,269.857422 
z"/>
<path fill="#60A6DC" opacity="1.000000" stroke="none" 
	d="
M627.294617,259.784607 
	C627.199951,259.465912 627.446228,259.260529 628.027344,259.140472 
	C628.033142,259.345825 627.791016,259.569885 627.294617,259.784607 
z"/>
<path fill="#31A0BF" opacity="1.000000" stroke="none" 
	d="
M363.913879,269.855164 
	C364.006958,269.993896 363.748352,270.003845 363.748352,270.003845 
	C363.748352,270.003845 363.494446,269.953857 363.374969,269.908447 
	C363.391541,269.612549 363.579956,269.563690 363.913879,269.855164 
z"/>
<path fill="#DAF3F9" opacity="1.000000" stroke="none" 
	d="
M344.896698,228.729889 
	C344.702606,228.832275 344.389923,228.707092 343.971558,228.340881 
	C344.169952,228.234009 344.474030,228.368179 344.896698,228.729889 
z"/>
<path fill="#E6F6FC" opacity="1.000000" stroke="none" 
	d="
M632.852905,166.056244 
	C632.647400,166.054001 632.434937,165.793488 632.220581,165.276642 
	C632.427795,165.279526 632.636841,165.538742 632.852905,166.056244 
z"/>
<path fill="#DAF3F9" opacity="1.000000" stroke="none" 
	d="
M338.860596,225.689819 
	C338.677490,225.800079 338.360779,225.681671 337.898376,225.346451 
	C338.077454,225.240143 338.402222,225.350647 338.860596,225.689819 
z"/>
<path fill="#DAF3F9" opacity="1.000000" stroke="none" 
	d="
M362.911255,239.732712 
	C362.710999,239.824875 362.408386,239.683472 362.014954,239.298309 
	C362.219086,239.202759 362.513947,239.350967 362.911255,239.732712 
z"/>
<path fill="#DAF3F9" opacity="1.000000" stroke="none" 
	d="
M343.911591,195.033417 
	C343.911591,195.033417 343.818542,194.562866 343.798370,194.323822 
	C344.086365,194.201080 344.394531,194.317352 344.825317,194.655212 
	C344.947937,194.876785 345.017883,195.243118 344.801819,195.224899 
	C344.382965,195.161453 344.180206,195.116241 343.974182,195.038742 
	C343.970856,195.006439 343.911591,195.033417 343.911591,195.033417 
z"/>
<path fill="#40B5DE" opacity="1.000000" stroke="none" 
	d="
M397.784668,305.668549 
	C397.818909,305.785004 397.558533,305.935425 397.421509,305.886230 
	C397.284454,305.837067 397.395935,305.554565 397.395935,305.554565 
	C397.395935,305.554565 397.750458,305.552094 397.784668,305.668549 
z"/>
<path fill="#60A3D9" opacity="1.000000" stroke="none" 
	d="
M636.298218,225.034378 
	C636.277832,224.794159 636.556030,224.513977 637.138916,224.198059 
	C637.161316,224.439682 636.879028,224.717041 636.298218,225.034378 
z"/>
<path fill="#E6F6FC" opacity="1.000000" stroke="none" 
	d="
M631.357178,196.870178 
	C631.114319,196.634293 631.233887,196.339005 631.737488,196.003876 
	C631.942444,196.236053 631.808472,196.518295 631.357178,196.870178 
z"/>
<path fill="#E6F6FC" opacity="1.000000" stroke="none" 
	d="
M630.294189,198.865082 
	C630.205322,198.688248 630.342712,198.382980 630.697754,197.937714 
	C630.783752,198.110687 630.652100,198.423660 630.294189,198.865082 
z"/>
<path fill="#DAF3F9" opacity="1.000000" stroke="none" 
	d="
M379.974579,223.132782 
	C380.123901,223.376190 379.991699,223.727509 379.597168,224.201385 
	C379.454254,223.962875 379.573639,223.601776 379.974579,223.132782 
z"/>
<path fill="#E6F6FC" opacity="1.000000" stroke="none" 
	d="
M629.704224,207.086975 
	C629.903076,207.332230 629.749634,207.609940 629.225891,207.900162 
	C629.067078,207.666687 629.232483,207.402267 629.704224,207.086975 
z"/>
<path fill="#4F8BC5" opacity="1.000000" stroke="none" 
	d="
M586.328186,324.174194 
	C586.305603,323.887390 586.624878,323.577332 587.291504,323.253448 
	C587.315979,323.543365 586.993042,323.847137 586.328186,324.174194 
z"/>
<path fill="#60A6DC" opacity="1.000000" stroke="none" 
	d="
M594.411865,294.041840 
	C594.441956,293.898132 594.754761,293.930847 594.904053,293.981567 
	C595.053345,294.032318 594.757385,294.324860 594.757385,294.324860 
	C594.757385,294.324860 594.381775,294.185547 594.411865,294.041840 
z"/>
<path fill="#FCFCFC" opacity="1.000000" stroke="none" 
	d="
M526.803101,157.721771 
	C517.406067,170.541412 505.151611,176.950577 489.596405,174.855957 
	C473.287872,172.659912 462.392212,163.114685 457.274811,147.492630 
	C452.523438,132.987991 457.735321,116.624222 469.780060,106.589493 
	C481.577087,96.761131 498.451660,95.026772 512.328552,102.216400 
	C525.912170,109.254097 534.546509,124.046829 532.716187,139.139786 
	C531.960571,145.370529 528.971497,151.330429 526.803101,157.721771 
z"/>
<path fill="#F6FDFE" opacity="1.000000" stroke="none" 
	d="
M450.969421,482.893860 
	C450.965607,485.369171 451.438751,487.531433 450.808807,489.300964 
	C450.289398,490.759949 448.607330,492.378571 447.161133,492.710968 
	C446.342621,492.899048 444.153015,490.741180 443.987183,489.458160 
	C443.522491,485.863190 443.770752,482.173737 443.769928,478.521576 
	C443.767517,467.563354 443.783051,456.605164 443.785706,445.646942 
	C443.786377,442.904358 443.660400,439.979523 447.611755,440.093719 
	C451.312408,440.200623 450.962097,443.054626 450.963837,445.551422 
	C450.972351,457.837921 450.968475,470.124390 450.969421,482.893860 
z"/>
<path fill="#F6FDFE" opacity="1.000000" stroke="none" 
	d="
M147.773773,476.993347 
	C147.776718,466.200195 147.781799,455.905914 147.781403,445.611603 
	C147.781311,442.861328 147.687286,439.941559 151.637634,440.089294 
	C155.327164,440.227295 154.961594,443.097473 154.963623,445.583801 
	C154.975204,459.696930 154.959000,473.810028 154.979019,487.923157 
	C154.982468,490.363373 155.010361,492.774841 151.679169,492.936371 
	C148.087585,493.110565 147.770569,490.651978 147.779678,487.952484 
	C147.791443,484.465729 147.777023,480.978943 147.773773,476.993347 
z"/>
<path fill="#F6FDFE" opacity="1.000000" stroke="none" 
	d="
M745.575378,491.900604 
	C740.233459,493.922974 738.829041,493.099396 738.806091,487.600189 
	C738.747070,473.440216 738.742249,459.279602 738.814880,445.119751 
	C738.840454,440.140320 739.810059,439.551575 745.378967,441.405396 
	C745.733948,458.647461 745.654663,475.274048 745.575378,491.900604 
z"/>
<path fill="#406081" opacity="1.000000" stroke="none" 
	d="
M745.957458,491.704559 
	C745.654663,475.274048 745.733948,458.647461 745.707153,441.572021 
	C746.063721,442.078094 746.924561,443.030945 746.929565,443.988220 
	C747.009277,459.218811 746.986633,474.449951 746.947693,489.680878 
	C746.946106,490.290588 746.551147,490.899323 745.957458,491.704559 
z"/>
<path fill="#5599D1" opacity="1.000000" stroke="none" 
	d="
M599.388855,293.949951 
	C597.995972,291.438995 596.518555,288.995422 596.180420,286.403290 
	C595.976318,284.838287 597.541687,283.042572 598.637268,281.178192 
	C600.056519,280.806580 601.150513,280.607330 602.897217,280.289185 
	C602.622070,285.243530 604.502441,290.211517 599.388855,293.949951 
z"/>
<path fill="#2D9EBF" opacity="1.000000" stroke="none" 
	d="
M368.803345,201.123230 
	C368.956573,201.303268 368.854889,201.514450 368.554077,201.804642 
	C368.283203,201.617386 368.347656,201.374298 368.803345,201.123230 
z"/>
<path fill="#2B8BB4" opacity="1.000000" stroke="none" 
	d="
M372.594238,245.601532 
	C372.396820,244.957764 372.395416,244.030121 372.610840,242.810394 
	C372.815155,243.451431 372.802673,244.384521 372.594238,245.601532 
z"/>
<path fill="#2E6FA0" opacity="1.000000" stroke="none" 
	d="
M378.035065,228.779160 
	C377.930542,228.304825 378.145844,227.679703 378.628235,226.851074 
	C378.715149,227.307831 378.535004,227.968094 378.035065,228.779160 
z"/>
<path fill="#4F8BC5" opacity="1.000000" stroke="none" 
	d="
M635.114929,203.147827 
	C635.538208,202.088654 636.179749,201.347473 636.944336,200.337677 
	C637.724121,199.708450 638.380920,199.347824 639.615723,198.885437 
	C640.453796,198.488251 640.713867,198.192810 640.973877,197.897400 
	C640.973938,197.897415 640.920898,197.955170 640.893616,197.926086 
	C642.321594,197.752884 643.776794,197.608780 645.200623,197.467789 
	C646.876160,199.617111 648.569031,201.788666 650.174133,203.847717 
	C645.688110,209.238174 647.216858,218.832657 638.299316,221.851715 
	C637.666992,216.915970 637.425903,211.828201 636.945251,206.763184 
	C636.837036,205.623322 635.892578,204.562836 635.114929,203.147827 
z"/>
<path fill="#287DAB" opacity="1.000000" stroke="none" 
	d="
M341.294617,210.764801 
	C338.498810,206.763840 335.979095,202.523438 332.683685,196.977600 
	C337.230682,196.122406 340.212036,195.561676 343.552490,195.017181 
	C343.911591,195.033417 343.970856,195.006439 344.076416,195.227249 
	C344.353973,195.686890 344.578552,195.855759 344.855713,195.954666 
	C343.760712,200.811569 342.665710,205.668472 341.294617,210.764801 
z"/>
<path fill="#287DAB" opacity="1.000000" stroke="none" 
	d="
M342.411041,217.943237 
	C342.013062,217.508148 341.932739,217.110580 341.851440,216.409561 
	C342.535767,216.502380 343.221100,216.898636 343.956360,217.621277 
	C343.580414,217.958694 343.154572,217.969711 342.411041,217.943237 
z"/>
<path fill="#3A679F" opacity="1.000000" stroke="none" 
	d="
M344.901733,195.866592 
	C344.578552,195.855759 344.353973,195.686890 344.079712,195.259552 
	C344.180206,195.116241 344.382965,195.161453 344.822357,195.410233 
	C345.058990,195.613785 344.947754,195.778519 344.901733,195.866592 
z"/>
<path fill="#2D9EBF" opacity="1.000000" stroke="none" 
	d="
M360.365997,238.866318 
	C360.365997,238.866318 360.762817,238.957672 360.889954,239.117203 
	C361.781952,240.818573 362.381195,242.473419 363.342041,243.881561 
	C366.519440,248.538223 367.030457,254.310196 364.227722,258.692261 
	C359.660248,256.151184 355.020325,253.670074 351.067596,250.366653 
	C345.668213,245.854218 349.420105,240.527527 350.533478,235.272476 
	C352.567108,235.881302 354.412231,236.433701 356.638702,236.985764 
	C357.020050,236.985443 357.000671,236.996719 357.066956,237.357193 
	C358.210815,238.100555 359.288422,238.483429 360.365997,238.866318 
z"/>
<path fill="#4781BA" opacity="1.000000" stroke="none" 
	d="
M640.681274,197.967102 
	C640.713867,198.192810 640.453796,198.488251 639.896973,198.855743 
	C639.863037,198.630814 640.125854,198.333817 640.681274,197.967102 
z"/>
<path fill="#31A0BF" opacity="1.000000" stroke="none" 
	d="
M360.164917,238.596771 
	C359.288422,238.483429 358.210815,238.100555 357.073181,237.349274 
	C357.996704,237.429672 358.980286,237.878448 360.164917,238.596771 
z"/>
</svg>